;TYPE=PLATED
;Layer: PTH_Through_Via
;EasyEDA Pro v2.2.20.32, 2024-06-04 01:45:37
;Gerber Generator version 0.3
M48
METRIC,LZ,000.00000
;Hole size 1 = 0.20000 METRIC
T01C0.20000
;Hole size 2 = 0.30000 METRIC
T02C0.30000
%
G05
G90
T01
X-9.15Y0.24994
X-9.15Y-0.24994
X-9.15Y1.25442
T02
X-8.90001Y0.75006
X-8.90001Y-0.74993
X-7.94998Y0.00623
X-2.15Y0.97511
X-2.15Y0.32487
X-6.27902Y1.62524
X-6.27902Y0.975
X-5.739Y4.29986
X-5.739Y4.89999
X-0.27502Y-4.45011
X-0.27502Y-5.10035
X-2.15Y-0.32499
X-2.15Y-1.62499
X-0.06857Y1.06857
X0.75Y2.3495
X-0.06857Y-0.00641
X1.58139Y-0.00641
X0.73143Y-1.03141
X1.15Y1.7
X0.45Y-0.45
X-2.99999Y3.84999
X-0.15001Y5.1003
X-0.15001Y4.50017
X9.47546Y4.20119
X9.47546Y3.59919
X9.49998Y-3.49899
X9.49998Y-4.101
X-3.18561Y3.2226
X-2.53537Y3.2226
X-5.74999Y-5.34986
X-3.91162Y0.0
X-4.51175Y0.0
X-3.91281Y1.30278
X-4.51294Y1.30278
X-5.75059Y-3.79999
X-8.74998Y-4.30006
X-8.74998Y-3.69993
X8.48326Y-4.87499
X8.44645Y4.97552
X8.45346Y2.19999
X8.69998Y-2.825
X7.35636Y-2.38584
X7.37498Y1.675
X-5.74999Y5.54999
X-5.19999Y5.84999
X-8.77498Y3.68939
X-3.08569Y5.84999
X-0.25Y-3.77499
X-5.24999Y-5.72499
X-6.92499Y3.34999
X-4.64999Y2.59999
X4.19999Y-1.91023
X4.19999Y-4.56241
X-8.64998Y-2.64999
X-6.49999Y-3.30862
X1.4Y-5.94999
X-0.375Y-5.89998
X-2.99999Y-5.84999
X-2.14999Y-2.225
X-5.99999Y-0.65
X-0.35Y-2.05
X12.34998Y0.0
X-3.375Y-5.34986
X4.19999Y-2.54999
X5.34999Y2.175
X12.12571Y-2.54
X12.15071Y-5.08
X5.14999Y-3.39999
X5.14999Y0.1
X-5.99999Y-2.1
X2.55001Y-0.07352
X7.37499Y-1.37499
X4.84999Y-0.50559
X-9.15045Y-2.25011
X-9.09998Y2.49999
X-9.04998Y4.39999
X-8.40786Y-5.50163
X-9.32546Y-4.47522
X-6.34999Y3.69999
X1.01439Y-4.69999
X1.74998Y-3.11031
X3.39998Y1.675
X4.14999Y1.2
X4.89999Y-1.9
X-1.75Y-0.975
X4.07499Y-3.89999
X4.74999Y3.923
X-0.425Y3.3
X4.14999Y-0.5
X-2.2Y2.72499
X-4.60016Y5.8609
X-4.63133Y-5.35871
X-3.49999Y-2.79999
X-4.32085Y4.85949
X12.04998Y0.65
X12.04998Y-0.65
M30