G04 Layer: TopPasteMaskLayer*
G04 EasyEDA Pro v2.2.20.32, 2024-06-04 01:45:36*
G04 Gerber Generator version 0.3*
G04 Scale: 100 percent, Rotated: No, Reflected: No*
G04 Dimensions in millimeters*
G04 Leading zeros omitted, absolute positions, 3 integers and 5 decimals*
%FSLAX35Y35*%
%MOMM*%
%AMRoundRect*1,1,$1,$2,$3*1,1,$1,$4,$5*1,1,$1,0-$2,0-$3*1,1,$1,0-$4,0-$5*20,1,$1,$2,$3,$4,$5,0*20,1,$1,$4,$5,0-$2,0-$3,0*20,1,$1,0-$2,0-$3,0-$4,0-$5,0*20,1,$1,0-$4,0-$5,$2,$3,0*4,1,4,$2,$3,$4,$5,0-$2,0-$3,0-$4,0-$5,$2,$3,0*%
%ADD10RoundRect,0.726X-2.137X0.242X2.137X0.242*%
%ADD11RoundRect,1.02X-1.24X-0.34X-1.24X0.34*%
%ADD12RoundRect,0.105X-0.5975X-0.1975X-0.5975X0.1975*%
%ADD13RoundRect,0.126X0.237X-0.237X-0.237X-0.237*%
%ADD14RoundRect,0.0525X-0.32375X-0.09875X-0.32375X0.09875*%
%ADD15RoundRect,0.0591X0.32375X0.09875X0.32375X-0.09875*%
%ADD16RoundRect,0.0525X0.32375X0.09875X0.32375X-0.09875*%
%ADD17RoundRect,0.063X0.4685X0.1185X0.4685X-0.1185*%
%ADD18RoundRect,0.168X-0.316X-0.416X-0.316X0.416*%
%ADD19RoundRect,0.126X-0.237X0.237X0.237X0.237*%
%ADD20RoundRect,0.126X0.237X-0.237X-0.237X-0.237*%
%ADD21RoundRect,0.0735X-0.36325X0.13825X0.36325X0.13825*%
%ADD22RoundRect,0.0735X0.36325X-0.13825X-0.36325X-0.13825*%
G75*


G04 PolygonModel Start*
G36*
G01X-899173Y-538632D02*
G01X-899310Y-535894D01*
G01X-899582Y-533164D01*
G01X-899991Y-530454D01*
G01X-900534Y-527766D01*
G01X-901210Y-525107D01*
G01X-902020Y-522486D01*
G01X-902958Y-519910D01*
G01X-904022Y-517383D01*
G01X-905213Y-514911D01*
G01X-906524Y-512503D01*
G01X-907954Y-510164D01*
G01X-909498Y-507898D01*
G01X-911154Y-505711D01*
G01X-912917Y-503611D01*
G01X-914784Y-501599D01*
G01X-916747Y-499684D01*
G01X-918802Y-497870D01*
G01X-920946Y-496161D01*
G01X-923173Y-494561D01*
G01X-925477Y-493072D01*
G01X-927852Y-491701D01*
G01X-930293Y-490449D01*
G01X-932792Y-489321D01*
G01X-935345Y-488320D01*
G01X-937944Y-487446D01*
G01X-940585Y-486705D01*
G01X-943257Y-486092D01*
G01X-945960Y-485618D01*
G01X-948680Y-485277D01*
G01X-951416Y-485071D01*
G01X-954156Y-485003D01*
G01X-1104153Y-485003D01*
G01X-1106894Y-485071D01*
G01X-1109630Y-485277D01*
G01X-1112350Y-485618D01*
G01X-1115053Y-486092D01*
G01X-1117725Y-486705D01*
G01X-1120366Y-487446D01*
G01X-1122965Y-488320D01*
G01X-1125517Y-489321D01*
G01X-1128017Y-490449D01*
G01X-1130458Y-491701D01*
G01X-1132833Y-493072D01*
G01X-1135136Y-494561D01*
G01X-1137364Y-496161D01*
G01X-1139508Y-497870D01*
G01X-1141563Y-499684D01*
G01X-1143526Y-501599D01*
G01X-1145393Y-503611D01*
G01X-1147156Y-505711D01*
G01X-1148812Y-507898D01*
G01X-1150356Y-510164D01*
G01X-1151786Y-512503D01*
G01X-1153097Y-514911D01*
G01X-1154288Y-517383D01*
G01X-1155352Y-519910D01*
G01X-1156290Y-522486D01*
G01X-1157100Y-525107D01*
G01X-1157775Y-527766D01*
G01X-1158319Y-530454D01*
G01X-1158728Y-533164D01*
G01X-1159000Y-535894D01*
G01X-1159137Y-538632D01*
G01X-1159137Y-541376D01*
G01X-1159000Y-544114D01*
G01X-1158728Y-546844D01*
G01X-1158319Y-549554D01*
G01X-1157775Y-552242D01*
G01X-1157100Y-554901D01*
G01X-1156290Y-557522D01*
G01X-1155352Y-560098D01*
G01X-1154288Y-562625D01*
G01X-1153097Y-565097D01*
G01X-1151786Y-567505D01*
G01X-1150356Y-569844D01*
G01X-1148812Y-572110D01*
G01X-1147156Y-574297D01*
G01X-1145393Y-576397D01*
G01X-1143526Y-578409D01*
G01X-1141563Y-580324D01*
G01X-1139508Y-582138D01*
G01X-1137364Y-583847D01*
G01X-1135136Y-585447D01*
G01X-1132833Y-586936D01*
G01X-1130458Y-588307D01*
G01X-1128017Y-589559D01*
G01X-1125517Y-590687D01*
G01X-1122965Y-591688D01*
G01X-1120366Y-592562D01*
G01X-1117725Y-593303D01*
G01X-1115053Y-593915D01*
G01X-1112350Y-594390D01*
G01X-1109630Y-594731D01*
G01X-1106894Y-594937D01*
G01X-1104153Y-595005D01*
G01X-954156Y-595005D01*
G01X-951416Y-594937D01*
G01X-948680Y-594731D01*
G01X-945960Y-594390D01*
G01X-943257Y-593915D01*
G01X-940585Y-593303D01*
G01X-937944Y-592562D01*
G01X-935345Y-591688D01*
G01X-932792Y-590687D01*
G01X-930293Y-589559D01*
G01X-927852Y-588307D01*
G01X-925477Y-586936D01*
G01X-923173Y-585447D01*
G01X-920946Y-583847D01*
G01X-918802Y-582138D01*
G01X-916747Y-580324D01*
G01X-914784Y-578409D01*
G01X-912917Y-576397D01*
G01X-911154Y-574297D01*
G01X-909498Y-572110D01*
G01X-907954Y-569844D01*
G01X-906524Y-567505D01*
G01X-905213Y-565097D01*
G01X-904022Y-562625D01*
G01X-902958Y-560098D01*
G01X-902020Y-557522D01*
G01X-901210Y-554901D01*
G01X-900534Y-552242D01*
G01X-899991Y-549554D01*
G01X-899582Y-546844D01*
G01X-899310Y-544114D01*
G01X-899173Y-541376D01*
G01X-899173Y-538632D01*
G37*
G36*
G01X-899173Y541376D02*
G01X-899310Y544114D01*
G01X-899582Y546844D01*
G01X-899991Y549554D01*
G01X-900534Y552242D01*
G01X-901210Y554901D01*
G01X-902020Y557522D01*
G01X-902958Y560098D01*
G01X-904022Y562625D01*
G01X-905213Y565097D01*
G01X-906524Y567505D01*
G01X-907954Y569844D01*
G01X-909498Y572110D01*
G01X-911154Y574297D01*
G01X-912917Y576397D01*
G01X-914784Y578409D01*
G01X-916747Y580324D01*
G01X-918802Y582138D01*
G01X-920946Y583847D01*
G01X-923173Y585447D01*
G01X-925477Y586936D01*
G01X-927852Y588307D01*
G01X-930293Y589559D01*
G01X-932792Y590687D01*
G01X-935345Y591688D01*
G01X-937944Y592562D01*
G01X-940585Y593303D01*
G01X-943257Y593916D01*
G01X-945960Y594390D01*
G01X-948680Y594731D01*
G01X-951416Y594937D01*
G01X-954156Y595005D01*
G01X-1104153Y595005D01*
G01X-1106894Y594937D01*
G01X-1109630Y594731D01*
G01X-1112350Y594390D01*
G01X-1115053Y593916D01*
G01X-1117725Y593303D01*
G01X-1120366Y592562D01*
G01X-1122965Y591688D01*
G01X-1125517Y590687D01*
G01X-1128017Y589559D01*
G01X-1130458Y588307D01*
G01X-1132833Y586936D01*
G01X-1135136Y585447D01*
G01X-1137364Y583847D01*
G01X-1139508Y582138D01*
G01X-1141563Y580324D01*
G01X-1143526Y578409D01*
G01X-1145393Y576397D01*
G01X-1147156Y574297D01*
G01X-1148812Y572110D01*
G01X-1150356Y569844D01*
G01X-1151786Y567505D01*
G01X-1153097Y565097D01*
G01X-1154288Y562625D01*
G01X-1155352Y560098D01*
G01X-1156290Y557522D01*
G01X-1157100Y554901D01*
G01X-1157775Y552242D01*
G01X-1158319Y549554D01*
G01X-1158728Y546844D01*
G01X-1159000Y544114D01*
G01X-1159137Y541376D01*
G01X-1159137Y538632D01*
G01X-1159000Y535894D01*
G01X-1158728Y533164D01*
G01X-1158319Y530454D01*
G01X-1157775Y527766D01*
G01X-1157100Y525107D01*
G01X-1156290Y522486D01*
G01X-1155352Y519910D01*
G01X-1154288Y517383D01*
G01X-1153097Y514911D01*
G01X-1151786Y512503D01*
G01X-1150356Y510164D01*
G01X-1148812Y507898D01*
G01X-1147156Y505711D01*
G01X-1145393Y503611D01*
G01X-1143526Y501599D01*
G01X-1141563Y499684D01*
G01X-1139508Y497870D01*
G01X-1137364Y496161D01*
G01X-1135136Y494561D01*
G01X-1132833Y493072D01*
G01X-1130458Y491701D01*
G01X-1128017Y490449D01*
G01X-1125517Y489321D01*
G01X-1122965Y488320D01*
G01X-1120366Y487446D01*
G01X-1117725Y486705D01*
G01X-1115053Y486093D01*
G01X-1112350Y485618D01*
G01X-1109630Y485277D01*
G01X-1106894Y485071D01*
G01X-1104153Y485003D01*
G01X-954156Y485003D01*
G01X-951416Y485071D01*
G01X-948680Y485277D01*
G01X-945960Y485618D01*
G01X-943257Y486093D01*
G01X-940585Y486705D01*
G01X-937944Y487446D01*
G01X-935345Y488320D01*
G01X-932792Y489321D01*
G01X-930293Y490449D01*
G01X-927852Y491701D01*
G01X-925477Y493072D01*
G01X-923173Y494561D01*
G01X-920946Y496161D01*
G01X-918802Y497870D01*
G01X-916747Y499684D01*
G01X-914784Y501599D01*
G01X-912917Y503611D01*
G01X-911154Y505711D01*
G01X-909498Y507898D01*
G01X-907954Y510164D01*
G01X-906524Y512503D01*
G01X-905213Y514911D01*
G01X-904022Y517383D01*
G01X-902958Y519910D01*
G01X-902020Y522486D01*
G01X-901210Y525107D01*
G01X-900534Y527766D01*
G01X-899991Y530454D01*
G01X-899582Y533164D01*
G01X-899310Y535894D01*
G01X-899173Y538632D01*
G01X-899173Y541376D01*
G37*
G36*
G01X-1012155Y-339997D02*
G01X-922152Y-339997D01*
G01X-922152Y-309994D01*
G01X-1012155Y-309994D01*
G01X-1012155Y-339997D01*
G37*
G36*
G01X-1012155Y310004D02*
G01X-922152Y310004D01*
G01X-922152Y340007D01*
G01X-1012155Y340007D01*
G01X-1012155Y310004D01*
G37*
G36*
G01X-1012155Y-389997D02*
G01X-922152Y-389997D01*
G01X-922152Y-359994D01*
G01X-1012155Y-359994D01*
G01X-1012155Y-389997D01*
G37*
G36*
G01X-922152Y390007D02*
G01X-1012155Y390007D01*
G01X-1012155Y360004D01*
G01X-922152Y360004D01*
G01X-922152Y390007D01*
G37*
G36*
G01X-1012155Y210005D02*
G01X-922152Y210005D01*
G01X-922152Y240007D01*
G01X-1012155Y240007D01*
G01X-1012155Y210005D01*
G37*
G36*
G01X-1012155Y-289997D02*
G01X-922152Y-289997D01*
G01X-922152Y-259994D01*
G01X-1012155Y-259994D01*
G01X-1012155Y-289997D01*
G37*
G36*
G01X-922152Y-409994D02*
G01X-1012155Y-409994D01*
G01X-1012155Y-439997D01*
G01X-922152Y-439997D01*
G01X-922152Y-409994D01*
G37*
G36*
G01X-1012155Y110005D02*
G01X-922152Y110005D01*
G01X-922152Y140007D01*
G01X-1012155Y140007D01*
G01X-1012155Y110005D01*
G37*
G36*
G01X-1012155Y-189995D02*
G01X-922152Y-189995D01*
G01X-922152Y-159992D01*
G01X-1012155Y-159992D01*
G01X-1012155Y-189995D01*
G37*
G36*
G01X-1012155Y10005D02*
G01X-922152Y10005D01*
G01X-922152Y40008D01*
G01X-1012155Y40008D01*
G01X-1012155Y10005D01*
G37*
G36*
G01X-1012155Y-89995D02*
G01X-922152Y-89995D01*
G01X-922152Y-59992D01*
G01X-1012155Y-59992D01*
G01X-1012155Y-89995D01*
G37*
G36*
G01X-922152Y440007D02*
G01X-1012155Y440007D01*
G01X-1012155Y410004D01*
G01X-922152Y410004D01*
G01X-922152Y440007D01*
G37*
G36*
G01X-1012155Y-39995D02*
G01X-922152Y-39995D01*
G01X-922152Y-9992D01*
G01X-1012155Y-9992D01*
G01X-1012155Y-39995D01*
G37*
G36*
G01X-1012155Y60005D02*
G01X-922152Y60005D01*
G01X-922152Y90007D01*
G01X-1012155Y90007D01*
G01X-1012155Y60005D01*
G37*
G36*
G01X-922152Y-209992D02*
G01X-1012155Y-209992D01*
G01X-1012155Y-239994D01*
G01X-922152Y-239994D01*
G01X-922152Y-209992D01*
G37*
G36*
G01X-1012155Y-139995D02*
G01X-922152Y-139995D01*
G01X-922152Y-109992D01*
G01X-1012155Y-109992D01*
G01X-1012155Y-139995D01*
G37*
G36*
G01X-1012155Y160005D02*
G01X-922152Y160005D01*
G01X-922152Y190007D01*
G01X-1012155Y190007D01*
G01X-1012155Y160005D01*
G37*
G36*
G01X-1012155Y260005D02*
G01X-922152Y260005D01*
G01X-922152Y290007D01*
G01X-1012155Y290007D01*
G01X-1012155Y260005D01*
G37*
G36*
G01X-1232296Y535894D02*
G01X-1232159Y538632D01*
G01X-1232159Y541376D01*
G01X-1232296Y544114D01*
G01X-1232568Y546844D01*
G01X-1232977Y549554D01*
G01X-1233521Y552242D01*
G01X-1234196Y554901D01*
G01X-1235007Y557522D01*
G01X-1235944Y560098D01*
G01X-1237008Y562625D01*
G01X-1238199Y565097D01*
G01X-1239510Y567505D01*
G01X-1240940Y569844D01*
G01X-1242484Y572110D01*
G01X-1244141Y574297D01*
G01X-1245903Y576397D01*
G01X-1247770Y578409D01*
G01X-1249734Y580324D01*
G01X-1251788Y582138D01*
G01X-1253932Y583847D01*
G01X-1256160Y585447D01*
G01X-1258464Y586936D01*
G01X-1260838Y588307D01*
G01X-1263279Y589559D01*
G01X-1265779Y590687D01*
G01X-1268331Y591688D01*
G01X-1270930Y592562D01*
G01X-1273571Y593303D01*
G01X-1276244Y593916D01*
G01X-1278946Y594390D01*
G01X-1281666Y594731D01*
G01X-1284402Y594937D01*
G01X-1287143Y595005D01*
G01X-1417142Y595005D01*
G01X-1419883Y594937D01*
G01X-1422619Y594731D01*
G01X-1425339Y594390D01*
G01X-1428042Y593916D01*
G01X-1430714Y593303D01*
G01X-1433355Y592562D01*
G01X-1435954Y591688D01*
G01X-1438506Y590687D01*
G01X-1441006Y589559D01*
G01X-1443447Y588307D01*
G01X-1445822Y586936D01*
G01X-1448125Y585447D01*
G01X-1450353Y583847D01*
G01X-1452497Y582138D01*
G01X-1454552Y580324D01*
G01X-1456515Y578409D01*
G01X-1458382Y576397D01*
G01X-1460145Y574297D01*
G01X-1461801Y572110D01*
G01X-1463345Y569844D01*
G01X-1464775Y567505D01*
G01X-1466086Y565097D01*
G01X-1467277Y562625D01*
G01X-1468341Y560098D01*
G01X-1469278Y557522D01*
G01X-1470089Y554901D01*
G01X-1470764Y552242D01*
G01X-1471308Y549554D01*
G01X-1471717Y546844D01*
G01X-1471989Y544114D01*
G01X-1472126Y541376D01*
G01X-1472126Y538632D01*
G01X-1471989Y535894D01*
G01X-1471717Y533164D01*
G01X-1471308Y530454D01*
G01X-1470764Y527766D01*
G01X-1470089Y525107D01*
G01X-1469278Y522486D01*
G01X-1468341Y519910D01*
G01X-1467277Y517383D01*
G01X-1466086Y514911D01*
G01X-1464775Y512503D01*
G01X-1463345Y510164D01*
G01X-1461801Y507898D01*
G01X-1460145Y505711D01*
G01X-1458382Y503611D01*
G01X-1456515Y501599D01*
G01X-1454552Y499684D01*
G01X-1452497Y497870D01*
G01X-1450353Y496161D01*
G01X-1448125Y494561D01*
G01X-1445822Y493072D01*
G01X-1443447Y491701D01*
G01X-1441006Y490449D01*
G01X-1438506Y489321D01*
G01X-1435954Y488320D01*
G01X-1433355Y487446D01*
G01X-1430714Y486705D01*
G01X-1428042Y486093D01*
G01X-1425339Y485618D01*
G01X-1422619Y485277D01*
G01X-1419883Y485071D01*
G01X-1417142Y485003D01*
G01X-1287143Y485003D01*
G01X-1284402Y485071D01*
G01X-1281666Y485277D01*
G01X-1278946Y485618D01*
G01X-1276244Y486093D01*
G01X-1273571Y486705D01*
G01X-1270930Y487446D01*
G01X-1268331Y488320D01*
G01X-1265779Y489321D01*
G01X-1263279Y490449D01*
G01X-1260838Y491701D01*
G01X-1258464Y493072D01*
G01X-1256160Y494561D01*
G01X-1253932Y496161D01*
G01X-1251788Y497870D01*
G01X-1249734Y499684D01*
G01X-1247770Y501599D01*
G01X-1245903Y503611D01*
G01X-1244141Y505711D01*
G01X-1242484Y507898D01*
G01X-1240940Y510164D01*
G01X-1239510Y512503D01*
G01X-1238199Y514911D01*
G01X-1237008Y517383D01*
G01X-1235944Y519910D01*
G01X-1235007Y522486D01*
G01X-1234196Y525107D01*
G01X-1233521Y527766D01*
G01X-1232977Y530454D01*
G01X-1232568Y533164D01*
G01X-1232296Y535894D01*
G37*
G36*
G01X-1232185Y-538632D02*
G01X-1232322Y-535894D01*
G01X-1232594Y-533164D01*
G01X-1233003Y-530454D01*
G01X-1233546Y-527766D01*
G01X-1234222Y-525107D01*
G01X-1235032Y-522486D01*
G01X-1235969Y-519910D01*
G01X-1237034Y-517383D01*
G01X-1238225Y-514911D01*
G01X-1239535Y-512503D01*
G01X-1240966Y-510164D01*
G01X-1242510Y-507898D01*
G01X-1244166Y-505711D01*
G01X-1245929Y-503611D01*
G01X-1247796Y-501599D01*
G01X-1249759Y-499684D01*
G01X-1251814Y-497870D01*
G01X-1253958Y-496161D01*
G01X-1256185Y-494561D01*
G01X-1258489Y-493072D01*
G01X-1260864Y-491701D01*
G01X-1263305Y-490449D01*
G01X-1265804Y-489321D01*
G01X-1268357Y-488320D01*
G01X-1270955Y-487446D01*
G01X-1273597Y-486705D01*
G01X-1276269Y-486092D01*
G01X-1278972Y-485618D01*
G01X-1281692Y-485277D01*
G01X-1284427Y-485071D01*
G01X-1287168Y-485003D01*
G01X-1417165Y-485003D01*
G01X-1419906Y-485071D01*
G01X-1422642Y-485277D01*
G01X-1425362Y-485618D01*
G01X-1428064Y-486092D01*
G01X-1430737Y-486705D01*
G01X-1433378Y-487446D01*
G01X-1435977Y-488320D01*
G01X-1438529Y-489321D01*
G01X-1441029Y-490449D01*
G01X-1443470Y-491701D01*
G01X-1445844Y-493072D01*
G01X-1448148Y-494561D01*
G01X-1450376Y-496161D01*
G01X-1452520Y-497870D01*
G01X-1454574Y-499684D01*
G01X-1456538Y-501599D01*
G01X-1458405Y-503611D01*
G01X-1460168Y-505711D01*
G01X-1461824Y-507898D01*
G01X-1463368Y-510164D01*
G01X-1464798Y-512503D01*
G01X-1466109Y-514911D01*
G01X-1467300Y-517383D01*
G01X-1468364Y-519910D01*
G01X-1469301Y-522486D01*
G01X-1470112Y-525107D01*
G01X-1470787Y-527766D01*
G01X-1471331Y-530454D01*
G01X-1471740Y-533164D01*
G01X-1472012Y-535894D01*
G01X-1472149Y-538632D01*
G01X-1472149Y-541376D01*
G01X-1472012Y-544114D01*
G01X-1471740Y-546844D01*
G01X-1471331Y-549554D01*
G01X-1470787Y-552242D01*
G01X-1470112Y-554901D01*
G01X-1469301Y-557522D01*
G01X-1468364Y-560098D01*
G01X-1467300Y-562625D01*
G01X-1466109Y-565097D01*
G01X-1464798Y-567505D01*
G01X-1463368Y-569844D01*
G01X-1461824Y-572110D01*
G01X-1460168Y-574297D01*
G01X-1458405Y-576397D01*
G01X-1456538Y-578409D01*
G01X-1454574Y-580324D01*
G01X-1452520Y-582138D01*
G01X-1450376Y-583847D01*
G01X-1448148Y-585447D01*
G01X-1445844Y-586936D01*
G01X-1443470Y-588307D01*
G01X-1441029Y-589559D01*
G01X-1438529Y-590687D01*
G01X-1435977Y-591688D01*
G01X-1433378Y-592562D01*
G01X-1430737Y-593303D01*
G01X-1428064Y-593915D01*
G01X-1425362Y-594390D01*
G01X-1422642Y-594731D01*
G01X-1419906Y-594937D01*
G01X-1417165Y-595005D01*
G01X-1287168Y-595005D01*
G01X-1284427Y-594937D01*
G01X-1281692Y-594731D01*
G01X-1278972Y-594390D01*
G01X-1276269Y-593915D01*
G01X-1273597Y-593303D01*
G01X-1270955Y-592562D01*
G01X-1268357Y-591688D01*
G01X-1265804Y-590687D01*
G01X-1263305Y-589559D01*
G01X-1260864Y-588307D01*
G01X-1258489Y-586936D01*
G01X-1256185Y-585447D01*
G01X-1253958Y-583847D01*
G01X-1251814Y-582138D01*
G01X-1249759Y-580324D01*
G01X-1247796Y-578409D01*
G01X-1245929Y-576397D01*
G01X-1244166Y-574297D01*
G01X-1242510Y-572110D01*
G01X-1240966Y-569844D01*
G01X-1239535Y-567505D01*
G01X-1238225Y-565097D01*
G01X-1237034Y-562625D01*
G01X-1235969Y-560098D01*
G01X-1235032Y-557522D01*
G01X-1234222Y-554901D01*
G01X-1233546Y-552242D01*
G01X-1233003Y-549554D01*
G01X-1232594Y-546844D01*
G01X-1232322Y-544114D01*
G01X-1232185Y-541376D01*
G01X-1232185Y-538632D01*
G37*

G04 Pad Start*
G54D10*
G01X473008Y556079D03*
G01X472035Y-555222D03*
G54D11*
G01X1449700Y0D03*
G01X1449700Y254000D03*
G01X1449700Y508000D03*
G01X1449700Y-508000D03*
G01X1449700Y-254000D03*
G54D12*
G01X75000Y565048D03*
G01X75000Y234950D03*
G01X75000Y-234950D03*
G01X75000Y-565048D03*
G54D13*
G01X602509Y-96859D03*
G01X602509Y93133D03*
G01X342489Y93133D03*
G01X342489Y-96859D03*
G01X342489Y-1863D03*
G54D14*
G01X-239001Y-584999D03*
G01X-239001Y-534986D03*
G01X-239001Y-484999D03*
G01X-239001Y-434986D03*
G01X-239001Y-384999D03*
G01X-660997Y-584999D03*
G01X-660997Y-534986D03*
G01X-660997Y-484999D03*
G01X-660997Y-434986D03*
G01X-660997Y-384999D03*
G54D16*
G01X-660997Y584999D03*
G01X-660997Y534986D03*
G01X-660997Y484999D03*
G01X-660997Y434986D03*
G01X-660997Y384999D03*
G01X-239001Y584999D03*
G01X-239001Y534986D03*
G01X-239001Y484999D03*
G01X-239001Y434986D03*
G01X-239001Y384999D03*
G54D17*
G01X-707095Y292506D03*
G01X-707095Y227508D03*
G01X-707095Y162509D03*
G01X-707095Y97511D03*
G01X-707095Y32487D03*
G01X-707095Y-32512D03*
G01X-707095Y-97511D03*
G01X-707095Y-162509D03*
G01X-707095Y-227508D03*
G01X-707095Y-292506D03*
G01X-132903Y292506D03*
G01X-132903Y227508D03*
G01X-132903Y162509D03*
G01X-132903Y97511D03*
G01X-132903Y32487D03*
G01X-132903Y-32512D03*
G01X-132903Y-97511D03*
G01X-132903Y-162509D03*
G01X-132903Y-227508D03*
G01X-132903Y-292506D03*
G54D18*
G01X-6857Y-103141D03*
G01X158139Y-103141D03*
G01X158139Y106857D03*
G01X-6857Y106857D03*
G54D19*
G01X610000Y419995D03*
G01X610000Y324999D03*
G01X610000Y230003D03*
G01X339998Y230003D03*
G01X339998Y324999D03*
G01X339998Y419995D03*
G54D20*
G01X339998Y-419995D03*
G01X339998Y-324999D03*
G01X339998Y-230003D03*
G01X610000Y-230003D03*
G01X610000Y-324999D03*
G01X610000Y-419995D03*
G54D21*
G01X848326Y-449989D03*
G01X847625Y-319989D03*
G54D22*
G01X844645Y460042D03*
G01X845346Y330043D03*
G04 Pad End*

M02*

