G04 Layer: BottomLayer*
G04 EasyEDA Pro v2.2.20.32, 2024-06-04 01:45:36*
G04 Gerber Generator version 0.3*
G04 Scale: 100 percent, Rotated: No, Reflected: No*
G04 Dimensions in millimeters*
G04 Leading zeros omitted, absolute positions, 3 integers and 5 decimals*
%FSLAX35Y35*%
%MOMM*%
%AMRoundRect*1,1,$1,$2,$3*1,1,$1,$4,$5*1,1,$1,0-$2,0-$3*1,1,$1,0-$4,0-$5*20,1,$1,$2,$3,$4,$5,0*20,1,$1,$4,$5,0-$2,0-$3,0*20,1,$1,0-$2,0-$3,0-$4,0-$5,0*20,1,$1,0-$4,0-$5,$2,$3,0*4,1,4,$2,$3,$4,$5,0-$2,0-$3,0-$4,0-$5,$2,$3,0*%
%ADD8191C,0.2032*%
%ADD10O,2.59999X1.1*%
%ADD11O,2.4X1.1*%
%ADD12RoundRect,1.02X-1.24X-0.34X-1.24X0.34*%
%ADD13RoundRect,0.14X0.2X0.105X0.2X-0.105*%
%ADD14RoundRect,0.14X0.105X-0.2X-0.105X-0.2*%
%ADD15RoundRect,0.1487X-0.105X0.2X0.105X0.2*%
%ADD16RoundRect,0.14X-0.105X0.2X0.105X0.2*%
%ADD17RoundRect,0.14X-0.2X-0.105X-0.2X0.105*%
%ADD18RoundRect,0.2X0.43X0.15X0.43X-0.15*%
%ADD19RoundRect,0.063X-0.3185X0.1185X0.3185X0.1185*%
%ADD20RoundRect,0.0693X0.21535X-0.13035X-0.21535X-0.13035*%
%ADD21RoundRect,0.0525X0.22375X-0.09875X-0.22375X-0.09875*%
%ADD22RoundRect,0.0693X-0.21535X0.13035X0.21535X0.13035*%
%ADD23RoundRect,0.0525X-0.22375X0.09875X0.22375X0.09875*%
%ADD24RoundRect,0.14X0.2X0.105X0.2X-0.105*%
%ADD25C,1.0*%
%ADD26RoundRect,0.126X-0.237X0.237X0.237X0.237*%
%ADD27C,0.4*%
%ADD28C,0.374*%
%ADD29C,0.45*%
%ADD30C,0.127*%
%ADD31C,0.3*%
%ADD32C,0.172*%
G75*


G04 Copper Start*
G36*
G01X-869584Y594999D02*
G02X-853930Y614186I19586J0D01*
G01X-711431Y614186D01*
G03X-711831Y608939I34214J-5247D01*
G01X-711831Y568938D01*
G03X-677217Y534324I34614J0D01*
G01X-656217Y534324D01*
G03X-625098Y553780I0J34614D01*
G03X-623767Y543460I50099J1219D01*
G03X-651413Y496249I26488J-47212D01*
G01X-651413Y406000D01*
G03X-619999Y374585I31415J0D01*
G02X-613799Y370492I0J-6741D01*
G03X-620095Y349901I82155J-36377D01*
G01X-630075Y349901D01*
G03X-643853Y347040I0J-34614D01*
G03X-712454Y380969I-48646J-12042D01*
G03X-740583Y400108I-28128J-11099D01*
G01X-748576Y400108D01*
G03X-762958Y402608I-14381J-40114D01*
G01X-800003Y402608D01*
G03X-830136Y390127I0J-42614D01*
G01X-831480Y388783D01*
G03X-912934Y404375I-46018J-19844D01*
G03X-897342Y322921I35436J-35436D01*
G01X-921483Y298780D01*
G03X-945434Y214563I11485J-48780D01*
G03X-861218Y238514I35436J35436D01*
G01X-851144Y248589D01*
G03X-762068Y184605I76582J12618D01*
G03X-697940Y273576I-12494J76602D01*
G01X-697968Y275904D01*
G01X-697672Y281793D01*
G01X-694539Y284926D01*
G03X-664676Y293318I2040J50073D01*
G03X-645116Y263111I34601J969D01*
G02X-645414Y259753I-162505J12704D01*
G03X-664690Y228723I15338J-31030D01*
G01X-664690Y207723D01*
G03X-663664Y199359I34614J0D01*
G02X-666056Y195016I-143958J76456D01*
G03X-673671Y182935I38154J-32492D01*
G02X-692362Y160556I-133950J92880D01*
G01X-698412Y154507D01*
G02X-706343Y148011I-36587J36587D01*
G03X-731217Y158554I-24873J-24072D01*
G01X-752217Y158554D01*
G03X-784998Y135053I0J-34614D01*
G03X-817780Y158554I-32782J-11113D01*
G01X-838780Y158554D01*
G03X-870417Y137984I0J-34614D01*
G03X-944094Y161477I-44584J-12542D01*
G03X-936658Y84503I29094J-36035D01*
G03X-936734Y65892I46657J-9497D01*
G03X-953992Y0I21734J-40898D01*
G03X-936736Y-65890I38991J-24994D01*
G03X-920800Y-111305I46736J-9103D01*
G03X-873394Y-119618I30799J36311D01*
G01X-873394Y-126060D01*
G03X-872037Y-135659I34614J0D01*
G03X-898259Y-147960I3910J-42434D01*
G01X-926530Y-176231D01*
G03X-964766Y-231271I11485J-48780D01*
G03X-914081Y-275116I49722J6260D01*
G03X-887761Y-309646I49082J10116D01*
G03X-932566Y-377800I29432J-68154D01*
G01X-932566Y-423752D01*
G03X-918345Y-464751I66210J0D01*
G03X-959998Y-454585I-41653J-80248D01*
G01X-964998Y-454585D01*
G02X-1001741Y-417842I0J36743D01*
G01X-1001741Y425006D01*
G02X-972161Y454585I29580J0D01*
G01X-954998Y454585D01*
G03X-869584Y539999I0J85414D01*
G01X-869584Y594999D01*
G37*
G36*
G01X-552813Y-614186D02*
G01X-844840Y-614186D01*
G02X-869584Y-584999I4841J29187D01*
G01X-869584Y-544999D01*
G03X-892884Y-484415I-90414J0D01*
G03X-866357Y-489962I26528J60663D01*
G01X-698514Y-489962D01*
G02X-627363Y-519434I0J-100624D01*
G03X-623645Y-522943I62689J62689D01*
G03X-614000Y-566456I48646J-12043D01*
G03X-573509Y-585078I39001J31469D01*
G03X-552813Y-614186I48510J12579D01*
G37*
G36*
G01X-869243Y32155D02*
G03X-857413Y40291I-20757J42851D01*
G01X-856597Y41042D01*
G01X-847539Y41042D01*
G03X-826309Y48494I0J33964D01*
G02X-823155Y49325I3154J-5574D01*
G01X-817780Y49325D01*
G03X-792984Y59787I0J34614D01*
G03X-794653Y49880I28570J-9907D01*
G01X-794653Y30130D01*
G03X-766981Y0I30239J0D01*
G03X-794653Y-30130I2566J-30130D01*
G01X-794653Y-49880D01*
G03X-791236Y-63844I30239J0D01*
G03X-817780Y-51446I-26544J-22216D01*
G01X-821022Y-51446D01*
G02X-823658Y-50843I0J6062D01*
G03X-847539Y-41029I-23881J-24151D01*
G01X-856597Y-41029D01*
G01X-857413Y-40278D01*
G03X-869241Y-32143I-32588J-34715D01*
G03X-876009Y0I-45759J7149D01*
G03X-869243Y32155I-38991J24994D01*
G37*
G36*
G01X-784177Y-72768D02*
G01X-784998Y-74947D01*
G03X-787315Y-69627I-32782J-11113D01*
G03X-784177Y-72768I22901J19747D01*
G37*
G36*
G01X-340737Y-614186D02*
G01X-497185Y-614186D01*
G03X-482922Y-545278I-27814J41687D01*
G03X-455762Y-532810I-3236J42865D01*
G01X-393779Y-470826D01*
G02X-259999Y-415413I133779J-133779D01*
G01X-204497Y-415413D01*
G02X-127364Y-447363I0J-109083D01*
G01X-115380Y-459346D01*
G02X-92768Y-513936I-54590J-54590D01*
G03X-91886Y-518131I10414J0D01*
G03X-30000Y-570413I61886J10486D01*
G01X11439Y-570413D01*
G03X61094Y-557277I0J100414D01*
G03X46825Y-585280I20345J-28004D01*
G01X46825Y-606280D01*
G03X47740Y-614186I34614J0D01*
G01X-259262Y-614186D01*
G03X-287408Y-536492I-40737J29187D01*
G03X-367564Y-494891I-50092J1506D01*
G03X-350091Y-583493I30064J-40095D01*
G03X-340737Y-614186I50092J-1506D01*
G37*
G36*
G01X-470408Y577773D02*
G03X-479261Y614186I-49591J7226D01*
G01X-390888Y614186D01*
G03X-391849Y606089I33654J-8097D01*
G01X-391849Y566089D01*
G03X-384986Y545400I34614J0D01*
G01X-489284Y545400D01*
G03X-470408Y577773I-30715J39599D01*
G37*
G36*
G01X-263612Y562856D02*
G03X-267832Y614186I-44957J22143D01*
G01X1151235Y614186D01*
G02X1159584Y601001I-6237J-13185D01*
G01X1159584Y535353D01*
G02X1144998Y520767I-14586J0D01*
G03X1142305Y520413I0J-10414D01*
G01X975924Y520413D01*
G03X896134Y487363I0J-112840D01*
G01X892939Y484168D01*
G03X824675Y543516I-48294J13385D01*
G03X821473Y453118I19970J-45963D01*
G02X775963Y478762I23173J94326D01*
G01X737362Y517363D01*
G03X609288Y570413I-128074J-128074D01*
G01X-226315Y570413D01*
G03X-263612Y562856I0J-95813D01*
G37*
G36*
G01X1150423Y-614186D02*
G01X231844Y-614186D01*
G03X232758Y-606280I-33699J7906D01*
G01X232758Y-585280D01*
G03X198144Y-550666I-34614J0D01*
G01X163368Y-550666D01*
G03X144942Y-545129I-23368J-44333D01*
G03X156054Y-519717I-23503J25412D01*
G01X156054Y-498717D01*
G03X150548Y-479987I-34614J0D01*
G03X146909Y-448930I-49109J9988D01*
G03X125568Y-426076I-45470J-21069D01*
G01X125568Y-395153D01*
G03X94234Y-319505I-106982J0D01*
G01X7026Y-232298D01*
G03X1955Y-171151I-42026J27299D01*
G03X-58513Y-160744I-36955J-33849D01*
G03X-54429Y-135635I-75150J25109D01*
G01X-54429Y-63451D01*
G03X-38943Y-21974I-47802J41478D01*
G01X-38943Y68360D01*
G03X42698Y99393I32085J38496D01*
G03X-26181Y153095I-49555J7463D01*
G02X50813Y184309I88835J-108558D01*
G01X211169Y184309D01*
G02X287636Y152636I0J-108140D01*
G01X295165Y145106D01*
G03X317605Y122667I44833J22393D01*
G01X357280Y82991D01*
G03X421712Y56303I64432J64432D01*
G01X495829Y56303D01*
G03X469855Y31758I19170J-46303D01*
G03X466837Y-3851I45144J-21758D01*
G03X462753Y-95465I18162J-46707D01*
G03X533161Y-36707I22246J44906D01*
G03X540458Y-33165I-18162J46707D01*
G02X555425Y-40015I-6058J-33015D01*
G03X585700Y-58645I30275J15283D01*
G01X633100Y-58645D01*
G03X663585Y-39591I0J33914D01*
G02X671949Y-34489I20815J-24715D01*
G01X672532Y-34494D01*
G01X709393Y-34494D01*
G01X709393Y-95308D01*
G03X686333Y-110820I28106J-66678D01*
G03X683282Y-118174I7364J-7364D01*
G01X683180Y-229169D01*
G03X683524Y-231972I11588J0D01*
G03X685329Y-249264I85695J205D01*
G01X674997Y-249264D01*
G03X669603Y-249686I0J-34614D01*
G02X655936Y-250874I-39606J376558D01*
G02X640011Y-249128I22164J275682D01*
G03X635834Y-248527I-6911J-33202D01*
G03X667014Y-214723I-2734J33804D01*
G01X667014Y-167323D01*
G03X633100Y-133409I-33914J0D01*
G01X585700Y-133409D01*
G03X551786Y-167323I0J-33914D01*
G01X551786Y-214723D01*
G03X582966Y-248527I33914J0D01*
G03X551786Y-282331I2734J-33804D01*
G01X551786Y-282998D01*
G02X549816Y-297385I-53514J0D01*
G01X541371Y-297385D01*
G03X526897Y-291318I-26372J-42614D01*
G03X532613Y-269999I-36898J21319D01*
G01X532613Y-216371D01*
G03X521062Y-150673I-42614J26372D01*
G03X454475Y-154652I-31063J-39326D01*
G03X391948Y-149495I-34476J-36371D01*
G03X387260Y-143525I-28850J-17828D01*
G03X397012Y-119727I-24162J23798D01*
G01X397012Y-72327D01*
G03X387260Y-48529I-33914J0D01*
G03X397012Y-24731I-24162J23798D01*
G01X397012Y22669D01*
G03X363098Y56583I-33914J0D01*
G01X315698Y56583D01*
G03X290438Y45298I0J-33914D01*
G02X265763Y41593I-26040J89400D01*
G03X206228Y-18870I-10763J-48945D01*
G03X286522Y-46312I48773J11518D01*
G02X290438Y-47360I-22123J-90449D01*
G01X291536Y-48529D01*
G03X281785Y-72081I24162J-23798D01*
G03X276060Y-71604I-5725J-34137D01*
G01X236060Y-71604D01*
G03X201446Y-106218I0J-34614D01*
G01X201446Y-127218D01*
G03X236060Y-161832I34614J0D01*
G01X276060Y-161832D01*
G03X282331Y-161259I0J34614D01*
G03X281784Y-167323I33368J-6064D01*
G01X281784Y-214723D01*
G03X312964Y-248527I33914J0D01*
G03X281784Y-282331I2734J-33804D01*
G01X281784Y-329731D01*
G03X291536Y-353529I33914J0D01*
G03X281785Y-377080I24162J-23798D01*
G03X276060Y-376603I-5725J-34137D01*
G01X236060Y-376603D01*
G03X201446Y-411217I0J-34614D01*
G01X201446Y-432217D01*
G03X236060Y-466832I34614J0D01*
G01X276060Y-466832D01*
G03X282331Y-466259I0J34614D01*
G03X281784Y-472323I33368J-6064D01*
G01X281784Y-519723D01*
G03X315698Y-553637I33914J0D01*
G01X363098Y-553637D01*
G03X395623Y-529330I0J33914D01*
G03X412992Y-520039I-6647J33307D01*
G01X425802Y-507229D01*
G01X436114Y-503694D01*
G03X469405Y-464640I-16115J47452D01*
G03X450889Y-416779I-49405J8399D01*
G03X454015Y-414015I-20890J26780D01*
G01X474015Y-394016D01*
G03X482889Y-378475I-24016J24016D01*
G03X541371Y-382613I32110J38475D01*
G01X575431Y-382613D01*
G03X603146Y-372370I0J42614D01*
G02X632433Y-363645I29287J-44789D01*
G01X633100Y-363645D01*
G03X663586Y-344589I0J33914D01*
G02X672210Y-339379I20814J-24711D01*
G03X674997Y-339492I2787J34502D01*
G01X714998Y-339492D01*
G03X730254Y-335948I0J34614D01*
G03X823952Y-443712I222100J98496D01*
G03X829076Y-533769I24374J-43788D01*
G03X896565Y-473921I19250J46270D01*
G01X898116Y-474282D01*
G03X924998Y-480413I26882J55866D01*
G01X947171Y-480413D01*
G03X952354Y-480558I5183J92625D01*
G03X957259Y-480413I0J83109D01*
G01X966042Y-480413D01*
G01X968290Y-480374D01*
G01X969956Y-480413D01*
G01X1144998Y-480413D01*
G02X1159584Y-494999I0J-14586D01*
G01X1159584Y-600647D01*
G02X1150423Y-614186I-14586J0D01*
G37*
%LPC*%
G36*
G01X124884Y-311031D02*
G03X225113Y-311031I50114J0D01*
G03X124884Y-311031I-50114J0D01*
G37*
G36*
G01X633100Y-553637D02*
G03X667014Y-519723I0J33914D01*
G01X667014Y-472323D01*
G03X633100Y-438409I-33914J0D01*
G01X585700Y-438409D01*
G03X551786Y-472323I0J-33914D01*
G01X551786Y-519723D01*
G03X585700Y-553637I33914J0D01*
G01X633100Y-553637D01*
G37*
%LPD*%
G36*
G01X69239Y-552110D02*
G01X70326Y-552499D01*
G03X65976Y-554312I11113J-32782D01*
G03X69239Y-552110I-54536J84313D01*
G37*
G54D8191*
G01X-869584Y594999D02*
G02X-853930Y614186I19586J0D01*
G01X-711431Y614186D01*
G03X-711831Y608939I34214J-5247D01*
G01X-711831Y568938D01*
G03X-677217Y534324I34614J0D01*
G01X-656217Y534324D01*
G03X-625098Y553780I0J34614D01*
G03X-623767Y543460I50099J1219D01*
G03X-651413Y496249I26488J-47212D01*
G01X-651413Y406000D01*
G03X-619999Y374585I31415J0D01*
G02X-613799Y370492I0J-6741D01*
G03X-620095Y349901I82155J-36377D01*
G01X-630075Y349901D01*
G03X-643853Y347040I0J-34614D01*
G03X-712454Y380969I-48646J-12042D01*
G03X-740583Y400108I-28128J-11099D01*
G01X-748576Y400108D01*
G03X-762958Y402608I-14381J-40114D01*
G01X-800003Y402608D01*
G03X-830136Y390127I0J-42614D01*
G01X-831480Y388783D01*
G03X-912934Y404375I-46018J-19844D01*
G03X-897342Y322921I35436J-35436D01*
G01X-921483Y298780D01*
G03X-945434Y214563I11485J-48780D01*
G03X-861218Y238514I35436J35436D01*
G01X-851144Y248589D01*
G03X-762068Y184605I76582J12618D01*
G03X-697940Y273576I-12494J76602D01*
G01X-697968Y275904D01*
G01X-697672Y281793D01*
G01X-694539Y284926D01*
G03X-664676Y293318I2040J50073D01*
G03X-645116Y263111I34601J969D01*
G02X-645414Y259753I-162505J12704D01*
G03X-664690Y228723I15338J-31030D01*
G01X-664690Y207723D01*
G03X-663664Y199359I34614J0D01*
G02X-666056Y195016I-143958J76456D01*
G03X-673671Y182935I38154J-32492D01*
G02X-692362Y160556I-133950J92880D01*
G01X-698412Y154507D01*
G02X-706343Y148011I-36587J36587D01*
G03X-731217Y158554I-24873J-24072D01*
G01X-752217Y158554D01*
G03X-784998Y135053I0J-34614D01*
G03X-817780Y158554I-32782J-11113D01*
G01X-838780Y158554D01*
G03X-870417Y137984I0J-34614D01*
G03X-944094Y161477I-44584J-12542D01*
G03X-936658Y84503I29094J-36035D01*
G03X-936734Y65892I46657J-9497D01*
G03X-953992Y0I21734J-40898D01*
G03X-936736Y-65890I38991J-24994D01*
G03X-920800Y-111305I46736J-9103D01*
G03X-873394Y-119618I30799J36311D01*
G01X-873394Y-126060D01*
G03X-872037Y-135659I34614J0D01*
G03X-898259Y-147960I3910J-42434D01*
G01X-926530Y-176231D01*
G03X-964766Y-231271I11485J-48780D01*
G03X-914081Y-275116I49722J6260D01*
G03X-887761Y-309646I49082J10116D01*
G03X-932566Y-377800I29432J-68154D01*
G01X-932566Y-423752D01*
G03X-918345Y-464751I66210J0D01*
G03X-959998Y-454585I-41653J-80248D01*
G01X-964998Y-454585D01*
G02X-1001741Y-417842I0J36743D01*
G01X-1001741Y425006D01*
G02X-972161Y454585I29580J0D01*
G01X-954998Y454585D01*
G03X-869584Y539999I0J85414D01*
G01X-869584Y594999D01*
G01X-552813Y-614186D02*
G01X-844840Y-614186D01*
G02X-869584Y-584999I4841J29187D01*
G01X-869584Y-544999D01*
G03X-892884Y-484415I-90414J0D01*
G03X-866357Y-489962I26528J60663D01*
G01X-698514Y-489962D01*
G02X-627363Y-519434I0J-100624D01*
G03X-623645Y-522943I62689J62689D01*
G03X-614000Y-566456I48646J-12043D01*
G03X-573509Y-585078I39001J31469D01*
G03X-552813Y-614186I48510J12579D01*
G01X-869243Y32155D02*
G03X-857413Y40291I-20757J42851D01*
G01X-856597Y41042D01*
G01X-847539Y41042D01*
G03X-826309Y48494I0J33964D01*
G02X-823155Y49325I3154J-5574D01*
G01X-817780Y49325D01*
G03X-792984Y59787I0J34614D01*
G03X-794653Y49880I28570J-9907D01*
G01X-794653Y30130D01*
G03X-766981Y0I30239J0D01*
G03X-794653Y-30130I2566J-30130D01*
G01X-794653Y-49880D01*
G03X-791236Y-63844I30239J0D01*
G03X-817780Y-51446I-26544J-22216D01*
G01X-821022Y-51446D01*
G02X-823658Y-50843I0J6062D01*
G03X-847539Y-41029I-23881J-24151D01*
G01X-856597Y-41029D01*
G01X-857413Y-40278D01*
G03X-869241Y-32143I-32588J-34715D01*
G03X-876009Y0I-45759J7149D01*
G03X-869243Y32155I-38991J24994D01*
G01X-784177Y-72768D02*
G01X-784998Y-74947D01*
G03X-787315Y-69627I-32782J-11113D01*
G03X-784177Y-72768I22901J19747D01*
G01X-340737Y-614186D02*
G01X-497185Y-614186D01*
G03X-482922Y-545278I-27814J41687D01*
G03X-455762Y-532810I-3236J42865D01*
G01X-393779Y-470826D01*
G02X-259999Y-415413I133779J-133779D01*
G01X-204497Y-415413D01*
G02X-127364Y-447363I0J-109083D01*
G01X-115380Y-459346D01*
G02X-92768Y-513936I-54590J-54590D01*
G03X-91886Y-518131I10414J0D01*
G03X-30000Y-570413I61886J10486D01*
G01X11439Y-570413D01*
G03X61094Y-557277I0J100414D01*
G03X46825Y-585280I20345J-28004D01*
G01X46825Y-606280D01*
G03X47740Y-614186I34614J0D01*
G01X-259262Y-614186D01*
G03X-287408Y-536492I-40737J29187D01*
G03X-367564Y-494891I-50092J1506D01*
G03X-350091Y-583493I30064J-40095D01*
G03X-340737Y-614186I50092J-1506D01*
G01X-470408Y577773D02*
G03X-479261Y614186I-49591J7226D01*
G01X-390888Y614186D01*
G03X-391849Y606089I33654J-8097D01*
G01X-391849Y566089D01*
G03X-384986Y545400I34614J0D01*
G01X-489284Y545400D01*
G03X-470408Y577773I-30715J39599D01*
G01X-263612Y562856D02*
G03X-267832Y614186I-44957J22143D01*
G01X1151235Y614186D01*
G02X1159584Y601001I-6237J-13185D01*
G01X1159584Y535353D01*
G02X1144998Y520767I-14586J0D01*
G03X1142305Y520413I0J-10414D01*
G01X975924Y520413D01*
G03X896134Y487363I0J-112840D01*
G01X892939Y484168D01*
G03X824675Y543516I-48294J13385D01*
G03X821473Y453118I19970J-45963D01*
G02X775963Y478762I23173J94326D01*
G01X737362Y517363D01*
G03X609288Y570413I-128074J-128074D01*
G01X-226315Y570413D01*
G03X-263612Y562856I0J-95813D01*
G01X1150423Y-614186D02*
G01X231844Y-614186D01*
G03X232758Y-606280I-33699J7906D01*
G01X232758Y-585280D01*
G03X198144Y-550666I-34614J0D01*
G01X163368Y-550666D01*
G03X144942Y-545129I-23368J-44333D01*
G03X156054Y-519717I-23503J25412D01*
G01X156054Y-498717D01*
G03X150548Y-479987I-34614J0D01*
G03X146909Y-448930I-49109J9988D01*
G03X125568Y-426076I-45470J-21069D01*
G01X125568Y-395153D01*
G03X94234Y-319505I-106982J0D01*
G01X7026Y-232298D01*
G03X1955Y-171151I-42026J27299D01*
G03X-58513Y-160744I-36955J-33849D01*
G03X-54429Y-135635I-75150J25109D01*
G01X-54429Y-63451D01*
G03X-38943Y-21974I-47802J41478D01*
G01X-38943Y68360D01*
G03X42698Y99393I32085J38496D01*
G03X-26181Y153095I-49555J7463D01*
G02X50813Y184309I88835J-108558D01*
G01X211169Y184309D01*
G02X287636Y152636I0J-108140D01*
G01X295165Y145106D01*
G03X317605Y122667I44833J22393D01*
G01X357280Y82991D01*
G03X421712Y56303I64432J64432D01*
G01X495829Y56303D01*
G03X469855Y31758I19170J-46303D01*
G03X466837Y-3851I45144J-21758D01*
G03X462753Y-95465I18162J-46707D01*
G03X533161Y-36707I22246J44906D01*
G03X540458Y-33165I-18162J46707D01*
G02X555425Y-40015I-6058J-33015D01*
G03X585700Y-58645I30275J15283D01*
G01X633100Y-58645D01*
G03X663585Y-39591I0J33914D01*
G02X671949Y-34489I20815J-24715D01*
G01X672532Y-34494D01*
G01X709393Y-34494D01*
G01X709393Y-95308D01*
G03X686333Y-110820I28106J-66678D01*
G03X683282Y-118174I7364J-7364D01*
G01X683180Y-229169D01*
G03X683524Y-231972I11588J0D01*
G03X685329Y-249264I85695J205D01*
G01X674997Y-249264D01*
G03X669603Y-249686I0J-34614D01*
G02X655936Y-250874I-39606J376558D01*
G02X640011Y-249128I22164J275682D01*
G03X635834Y-248527I-6911J-33202D01*
G03X667014Y-214723I-2734J33804D01*
G01X667014Y-167323D01*
G03X633100Y-133409I-33914J0D01*
G01X585700Y-133409D01*
G03X551786Y-167323I0J-33914D01*
G01X551786Y-214723D01*
G03X582966Y-248527I33914J0D01*
G03X551786Y-282331I2734J-33804D01*
G01X551786Y-282998D01*
G02X549816Y-297385I-53514J0D01*
G01X541371Y-297385D01*
G03X526897Y-291318I-26372J-42614D01*
G03X532613Y-269999I-36898J21319D01*
G01X532613Y-216371D01*
G03X521062Y-150673I-42614J26372D01*
G03X454475Y-154652I-31063J-39326D01*
G03X391948Y-149495I-34476J-36371D01*
G03X387260Y-143525I-28850J-17828D01*
G03X397012Y-119727I-24162J23798D01*
G01X397012Y-72327D01*
G03X387260Y-48529I-33914J0D01*
G03X397012Y-24731I-24162J23798D01*
G01X397012Y22669D01*
G03X363098Y56583I-33914J0D01*
G01X315698Y56583D01*
G03X290438Y45298I0J-33914D01*
G02X265763Y41593I-26040J89400D01*
G03X206228Y-18870I-10763J-48945D01*
G03X286522Y-46312I48773J11518D01*
G02X290438Y-47360I-22123J-90449D01*
G01X291536Y-48529D01*
G03X281785Y-72081I24162J-23798D01*
G03X276060Y-71604I-5725J-34137D01*
G01X236060Y-71604D01*
G03X201446Y-106218I0J-34614D01*
G01X201446Y-127218D01*
G03X236060Y-161832I34614J0D01*
G01X276060Y-161832D01*
G03X282331Y-161259I0J34614D01*
G03X281784Y-167323I33368J-6064D01*
G01X281784Y-214723D01*
G03X312964Y-248527I33914J0D01*
G03X281784Y-282331I2734J-33804D01*
G01X281784Y-329731D01*
G03X291536Y-353529I33914J0D01*
G03X281785Y-377080I24162J-23798D01*
G03X276060Y-376603I-5725J-34137D01*
G01X236060Y-376603D01*
G03X201446Y-411217I0J-34614D01*
G01X201446Y-432217D01*
G03X236060Y-466832I34614J0D01*
G01X276060Y-466832D01*
G03X282331Y-466259I0J34614D01*
G03X281784Y-472323I33368J-6064D01*
G01X281784Y-519723D01*
G03X315698Y-553637I33914J0D01*
G01X363098Y-553637D01*
G03X395623Y-529330I0J33914D01*
G03X412992Y-520039I-6647J33307D01*
G01X425802Y-507229D01*
G01X436114Y-503694D01*
G03X469405Y-464640I-16115J47452D01*
G03X450889Y-416779I-49405J8399D01*
G03X454015Y-414015I-20890J26780D01*
G01X474015Y-394016D01*
G03X482889Y-378475I-24016J24016D01*
G03X541371Y-382613I32110J38475D01*
G01X575431Y-382613D01*
G03X603146Y-372370I0J42614D01*
G02X632433Y-363645I29287J-44789D01*
G01X633100Y-363645D01*
G03X663586Y-344589I0J33914D01*
G02X672210Y-339379I20814J-24711D01*
G03X674997Y-339492I2787J34502D01*
G01X714998Y-339492D01*
G03X730254Y-335948I0J34614D01*
G03X823952Y-443712I222100J98496D01*
G03X829076Y-533769I24374J-43788D01*
G03X896565Y-473921I19250J46270D01*
G01X898116Y-474282D01*
G03X924998Y-480413I26882J55866D01*
G01X947171Y-480413D01*
G03X952354Y-480558I5183J92625D01*
G03X957259Y-480413I0J83109D01*
G01X966042Y-480413D01*
G01X968290Y-480374D01*
G01X969956Y-480413D01*
G01X1144998Y-480413D01*
G02X1159584Y-494999I0J-14586D01*
G01X1159584Y-600647D01*
G02X1150423Y-614186I-14586J0D01*
G01X124884Y-311031D02*
G03X225113Y-311031I50114J0D01*
G03X124884Y-311031I-50114J0D01*
G01X633100Y-553637D02*
G03X667014Y-519723I0J33914D01*
G01X667014Y-472323D01*
G03X633100Y-438409I-33914J0D01*
G01X585700Y-438409D01*
G03X551786Y-472323I0J-33914D01*
G01X551786Y-519723D01*
G03X585700Y-553637I33914J0D01*
G01X633100Y-553637D01*
G01X69239Y-552110D02*
G01X70326Y-552499D01*
G03X65976Y-554312I11113J-32782D01*
G03X69239Y-552110I-54536J84313D01*
G04 Copper End*

G04 Text Start*
G36*
G01X935604Y118258D02*
G01X935756Y115228D01*
G01X935453Y111894D01*
G01X935150Y110682D01*
G01X934847Y109319D01*
G01X934392Y108106D01*
G01X933938Y107046D01*
G01X933332Y105985D01*
G01X932574Y104773D01*
G01X931816Y103713D01*
G01X929544Y101440D01*
G01X928786Y100834D01*
G01X926665Y99319D01*
G01X925756Y98713D01*
G01X924392Y97955D01*
G01X922877Y97197D01*
G01X921362Y96591D01*
G01X919998Y95985D01*
G01X918483Y95379D01*
G01X915756Y94470D01*
G01X913786Y93864D01*
G01X911665Y93258D01*
G01X908634Y92500D01*
G01X907574Y92349D01*
G01X906362Y92046D01*
G01X904998Y91743D01*
G01X903786Y91591D01*
G01X900756Y90985D01*
G01X898331Y90682D01*
G01X897119Y90379D01*
G01X895604Y90228D01*
G01X889544Y89470D01*
G01X885907Y89167D01*
G01X883786Y88864D01*
G01X876362Y88712D01*
G01X868938Y88864D01*
G01X867422Y89167D01*
G01X865453Y89622D01*
G01X863786Y90076D01*
G01X862574Y90531D01*
G01X861513Y90985D01*
G01X860301Y91591D01*
G01X858938Y92500D01*
G01X857877Y93409D01*
G01X857119Y94167D01*
G01X856362Y95228D01*
G01X855150Y97652D01*
G01X854695Y99167D01*
G01X854241Y100531D01*
G01X853938Y104319D01*
G01X854241Y108106D01*
G01X854847Y110531D01*
G01X855453Y111894D01*
G01X856059Y113106D01*
G01X856665Y114016D01*
G01X857574Y115228D01*
G01X859392Y117046D01*
G01X860453Y117955D01*
G01X861513Y118712D01*
G01X862271Y119319D01*
G01X863332Y120076D01*
G01X864392Y120682D01*
G01X866513Y121743D01*
G01X867877Y122349D01*
G01X872422Y124167D01*
G01X873938Y124622D01*
G01X874998Y124925D01*
G01X876362Y125379D01*
G01X878180Y125834D01*
G01X879695Y126288D01*
G01X883786Y127197D01*
G01X884998Y127349D01*
G01X886210Y127652D01*
G01X888028Y127955D01*
G01X889998Y128409D01*
G01X891968Y128712D01*
G01X893483Y128864D01*
G01X895301Y129167D01*
G01X897422Y129470D01*
G01X898937Y129622D01*
G01X900150Y129773D01*
G01X901665Y130076D01*
G01X904392Y130228D01*
G01X906513Y130379D01*
G01X908937Y130682D01*
G01X913483Y130834D01*
G01X918028Y130682D01*
G01X920150Y130379D01*
G01X921513Y130228D01*
G01X923028Y129925D01*
G01X925453Y129319D01*
G01X926968Y128712D01*
G01X928635Y127955D01*
G01X929998Y127197D01*
G01X930907Y126591D01*
G01X931665Y125985D01*
G01X932877Y124470D01*
G01X933483Y123561D01*
G01X934392Y121743D01*
G01X934847Y120531D01*
G01X935604Y118258D01*
G37*
%LPC*%
G36*
G01X926513Y115531D02*
G01X926210Y116288D01*
G01X925453Y117652D01*
G01X924241Y118712D01*
G01X923180Y119319D01*
G01X921968Y119773D01*
G01X920756Y120076D01*
G01X919241Y120379D01*
G01X916513Y120531D01*
G01X914392Y120682D01*
G01X913028Y120834D01*
G01X911665Y120682D01*
G01X904392Y120379D01*
G01X899544Y119773D01*
G01X898180Y119622D01*
G01X896665Y119319D01*
G01X894695Y119016D01*
G01X892877Y118864D01*
G01X890756Y118561D01*
G01X889544Y118258D01*
G01X887877Y117955D01*
G01X886513Y117652D01*
G01X884089Y117349D01*
G01X877271Y115834D01*
G01X872725Y114470D01*
G01X870301Y113561D01*
G01X868938Y112955D01*
G01X867574Y112197D01*
G01X866210Y111288D01*
G01X865150Y110379D01*
G01X864392Y109319D01*
G01X863635Y107955D01*
G01X863180Y106440D01*
G01X863029Y104470D01*
G01X863483Y102500D01*
G01X864241Y101288D01*
G01X865301Y100379D01*
G01X866665Y99622D01*
G01X868180Y99167D01*
G01X869544Y98864D01*
G01X871059Y98561D01*
G01X876968Y98409D01*
G01X882271Y98561D01*
G01X884392Y98864D01*
G01X888028Y99167D01*
G01X890756Y99470D01*
G01X891968Y99773D01*
G01X893483Y99925D01*
G01X894695Y100076D01*
G01X898028Y100682D01*
G01X900453Y100985D01*
G01X901665Y101288D01*
G01X903634Y101591D01*
G01X905301Y101894D01*
G01X906816Y102197D01*
G01X908786Y102652D01*
G01X910301Y102955D01*
G01X911362Y103106D01*
G01X912877Y103561D01*
G01X915907Y104319D01*
G01X917271Y104773D01*
G01X918938Y105379D01*
G01X921665Y106591D01*
G01X922725Y107197D01*
G01X923483Y107803D01*
G01X924241Y108561D01*
G01X924847Y109319D01*
G01X925604Y110379D01*
G01X926210Y111894D01*
G01X926513Y113106D01*
G01X926665Y114470D01*
G01X926513Y115531D01*
G37*
%LPD*%
G36*
G01X935453Y-40985D02*
G01X935756Y-44167D01*
G01X935453Y-47651D01*
G01X935150Y-49015D01*
G01X934847Y-50227D01*
G01X934392Y-51439D01*
G01X933938Y-52500D01*
G01X933483Y-53257D01*
G01X932726Y-54470D01*
G01X931816Y-55682D01*
G01X931059Y-56439D01*
G01X930453Y-57197D01*
G01X929847Y-57803D01*
G01X929089Y-58409D01*
G01X928180Y-59167D01*
G01X926362Y-60379D01*
G01X924241Y-61591D01*
G01X923028Y-62197D01*
G01X921665Y-62803D01*
G01X920150Y-63409D01*
G01X918786Y-64015D01*
G01X917422Y-64470D01*
G01X916210Y-64924D01*
G01X914847Y-65379D01*
G01X913331Y-65833D01*
G01X909695Y-66742D01*
G01X908634Y-66894D01*
G01X906210Y-67500D01*
G01X905150Y-67651D01*
G01X903937Y-67954D01*
G01X902271Y-68257D01*
G01X900756Y-68409D01*
G01X897422Y-69015D01*
G01X894998Y-69318D01*
G01X893786Y-69621D01*
G01X891665Y-69773D01*
G01X889847Y-69924D01*
G01X887725Y-70227D01*
G01X884089Y-70530D01*
G01X877422Y-70833D01*
G01X875907Y-70985D01*
G01X874392Y-70833D01*
G01X868332Y-70530D01*
G01X865301Y-69924D01*
G01X863938Y-69470D01*
G01X862271Y-68863D01*
G01X860756Y-68106D01*
G01X859241Y-67197D01*
G01X858180Y-66288D01*
G01X857422Y-65530D01*
G01X856513Y-64470D01*
G01X855756Y-63106D01*
G01X855150Y-61742D01*
G01X854695Y-60227D01*
G01X854241Y-58863D01*
G01X853938Y-55076D01*
G01X854241Y-51288D01*
G01X854695Y-49773D01*
G01X855150Y-48409D01*
G01X856210Y-46288D01*
G01X857119Y-44924D01*
G01X857877Y-43864D01*
G01X859392Y-42348D01*
G01X860907Y-41136D01*
G01X861816Y-40379D01*
G01X862877Y-39773D01*
G01X864089Y-39015D01*
G01X865453Y-38257D01*
G01X866816Y-37651D01*
G01X868332Y-36894D01*
G01X869847Y-36288D01*
G01X871210Y-35833D01*
G01X872422Y-35379D01*
G01X873483Y-35076D01*
G01X874695Y-34621D01*
G01X876362Y-34167D01*
G01X877877Y-33712D01*
G01X881513Y-32803D01*
G01X882574Y-32651D01*
G01X884998Y-32045D01*
G01X886059Y-31894D01*
G01X887271Y-31591D01*
G01X888786Y-31288D01*
G01X890150Y-31136D01*
G01X893786Y-30530D01*
G01X896210Y-30227D01*
G01X897725Y-29924D01*
G01X899695Y-29773D01*
G01X901059Y-29621D01*
G01X903180Y-29318D01*
G01X907119Y-29015D01*
G01X913483Y-28864D01*
G01X919847Y-29015D01*
G01X921968Y-29318D01*
G01X923483Y-29621D01*
G01X924998Y-30076D01*
G01X927422Y-30985D01*
G01X928483Y-31439D01*
G01X929847Y-32197D01*
G01X931059Y-33106D01*
G01X932574Y-34621D01*
G01X933180Y-35379D01*
G01X934241Y-37500D01*
G01X934847Y-38864D01*
G01X935150Y-40076D01*
G01X935453Y-40985D01*
G37*
%LPC*%
G36*
G01X926513Y-44621D02*
G01X926210Y-43257D01*
G01X925604Y-42045D01*
G01X924847Y-41288D01*
G01X923786Y-40530D01*
G01X922119Y-39773D01*
G01X920301Y-39318D01*
G01X918938Y-39015D01*
G01X914089Y-38712D01*
G01X913028Y-38561D01*
G01X911968Y-38712D01*
G01X905604Y-39015D01*
G01X904089Y-39318D01*
G01X901816Y-39470D01*
G01X900150Y-39621D01*
G01X898028Y-39924D01*
G01X896210Y-40227D01*
G01X893786Y-40530D01*
G01X892271Y-40833D01*
G01X889847Y-41136D01*
G01X886513Y-41742D01*
G01X883483Y-42348D01*
G01X881816Y-42651D01*
G01X879998Y-43106D01*
G01X878635Y-43409D01*
G01X877422Y-43712D01*
G01X876362Y-44015D01*
G01X875301Y-44167D01*
G01X873938Y-44621D01*
G01X870604Y-45833D01*
G01X868938Y-46591D01*
G01X867574Y-47348D01*
G01X866210Y-48257D01*
G01X864392Y-50076D01*
G01X863786Y-50985D01*
G01X863332Y-52197D01*
G01X863029Y-54470D01*
G01X863142Y-55909D01*
G01X863483Y-56894D01*
G01X864241Y-58257D01*
G01X865301Y-59167D01*
G01X866513Y-59773D01*
G01X867725Y-60227D01*
G01X868938Y-60530D01*
G01X870756Y-60833D01*
G01X877271Y-60985D01*
G01X882877Y-60833D01*
G01X886513Y-60530D01*
G01X888028Y-60227D01*
G01X889998Y-60076D01*
G01X891362Y-59924D01*
G01X894998Y-59318D01*
G01X897422Y-59015D01*
G01X898634Y-58712D01*
G01X899998Y-58560D01*
G01X901059Y-58409D01*
G01X904089Y-57803D01*
G01X905150Y-57651D01*
G01X906362Y-57348D01*
G01X907725Y-57045D01*
G01X908937Y-56894D01*
G01X911665Y-56288D01*
G01X915301Y-55379D01*
G01X918028Y-54470D01*
G01X919241Y-54015D01*
G01X920150Y-53560D01*
G01X921210Y-53106D01*
G01X922574Y-52348D01*
G01X923635Y-51439D01*
G01X924847Y-50227D01*
G01X925453Y-49318D01*
G01X926059Y-48106D01*
G01X926513Y-46288D01*
G01X926513Y-44621D01*
G37*
%LPD*%
G36*
G01X935453Y-85227D02*
G01X935756Y-89015D01*
G01X935604Y-92348D01*
G01X935301Y-93560D01*
G01X934847Y-95076D01*
G01X934392Y-96439D01*
G01X933938Y-97500D01*
G01X933180Y-98712D01*
G01X932271Y-100227D01*
G01X931362Y-101288D01*
G01X929089Y-103560D01*
G01X928332Y-104166D01*
G01X927271Y-104772D01*
G01X924847Y-106288D01*
G01X923635Y-106894D01*
G01X920453Y-108257D01*
G01X919241Y-108712D01*
G01X918028Y-109015D01*
G01X916665Y-109469D01*
G01X914998Y-109924D01*
G01X913483Y-110227D01*
G01X912271Y-110530D01*
G01X911059Y-110682D01*
G01X909695Y-110985D01*
G01X907422Y-111288D01*
G01X905301Y-111439D01*
G01X900604Y-111591D01*
G01X895907Y-111439D01*
G01X893786Y-111136D01*
G01X890756Y-110227D01*
G01X889544Y-109772D01*
G01X888331Y-109166D01*
G01X887119Y-108409D01*
G01X886059Y-107500D01*
G01X885301Y-106742D01*
G01X884392Y-105682D01*
G01X883635Y-104318D01*
G01X883180Y-103106D01*
G01X882877Y-102045D01*
G01X882574Y-100530D01*
G01X882422Y-98106D01*
G01X882574Y-96288D01*
G01X882877Y-95227D01*
G01X883331Y-94015D01*
G01X883938Y-92651D01*
G01X884544Y-91591D01*
G01X884998Y-90682D01*
G01X885150Y-90076D01*
G01X884089Y-90227D01*
G01X882574Y-90530D01*
G01X881513Y-90682D01*
G01X880301Y-90985D01*
G01X878786Y-91288D01*
G01X877422Y-91439D01*
G01X871362Y-92651D01*
G01X869241Y-92954D01*
G01X866513Y-93560D01*
G01X865453Y-93712D01*
G01X864392Y-94015D01*
G01X864051Y-96591D01*
G01X863824Y-110833D01*
G01X863483Y-113409D01*
G01X861968Y-114015D01*
G01X859847Y-114469D01*
G01X857877Y-114924D01*
G01X856362Y-115227D01*
G01X855301Y-115379D01*
G01X854960Y-111932D01*
G01X854847Y-101288D01*
G01X854847Y-87045D01*
G01X855907Y-86742D01*
G01X857725Y-86288D01*
G01X859847Y-85985D01*
G01X862119Y-85530D01*
G01X863938Y-85227D01*
G01X865301Y-85076D01*
G01X866513Y-84772D01*
G01X868332Y-84469D01*
G01X870453Y-84015D01*
G01X872271Y-83712D01*
G01X873483Y-83560D01*
G01X876513Y-82954D01*
G01X877574Y-82803D01*
G01X878786Y-82500D01*
G01X880453Y-82197D01*
G01X881968Y-82045D01*
G01X884998Y-81439D01*
G01X886059Y-81288D01*
G01X887271Y-80985D01*
G01X888938Y-80682D01*
G01X890453Y-80530D01*
G01X893483Y-79924D01*
G01X894544Y-79773D01*
G01X895756Y-79469D01*
G01X896816Y-79318D01*
G01X897157Y-79583D01*
G01X897271Y-80076D01*
G01X897422Y-81136D01*
G01X897877Y-82651D01*
G01X898180Y-84318D01*
G01X898483Y-85530D01*
G01X898559Y-86061D01*
G01X898180Y-86439D01*
G01X896816Y-87045D01*
G01X895453Y-87803D01*
G01X894089Y-88712D01*
G01X893028Y-89621D01*
G01X892422Y-90379D01*
G01X891665Y-91439D01*
G01X891059Y-92954D01*
G01X890756Y-94166D01*
G01X890604Y-95682D01*
G01X890907Y-97348D01*
G01X891665Y-98560D01*
G01X892574Y-99469D01*
G01X893634Y-100227D01*
G01X894847Y-100833D01*
G01X895907Y-101136D01*
G01X897422Y-101439D01*
G01X902877Y-101591D01*
G01X907725Y-101439D01*
G01X910150Y-101136D01*
G01X911362Y-100833D01*
G01X913180Y-100530D01*
G01X914847Y-100075D01*
G01X916059Y-99772D01*
G01X917119Y-99469D01*
G01X919544Y-98560D01*
G01X921362Y-97651D01*
G01X922422Y-97045D01*
G01X923331Y-96439D01*
G01X924089Y-95833D01*
G01X925301Y-94318D01*
G01X925907Y-93106D01*
G01X926210Y-91742D01*
G01X926513Y-90530D01*
G01X926665Y-89166D01*
G01X926513Y-88106D01*
G01X926059Y-86742D01*
G01X925301Y-85530D01*
G01X924695Y-84924D01*
G01X923938Y-84318D01*
G01X922877Y-83712D01*
G01X921513Y-83106D01*
G01X919847Y-82651D01*
G01X918634Y-82348D01*
G01X916665Y-82197D01*
G01X914695Y-81894D01*
G01X914392Y-81401D01*
G01X914392Y-80530D01*
G01X914695Y-78712D01*
G01X914847Y-77348D01*
G01X914998Y-76288D01*
G01X915150Y-74924D01*
G01X915604Y-73409D01*
G01X916210Y-72954D01*
G01X917119Y-72803D01*
G01X921665Y-73257D01*
G01X923331Y-73560D01*
G01X924998Y-74015D01*
G01X927422Y-74924D01*
G01X928483Y-75530D01*
G01X929847Y-76288D01*
G01X930907Y-77197D01*
G01X932422Y-78712D01*
G01X933180Y-79773D01*
G01X933938Y-80985D01*
G01X934544Y-82197D01*
G01X934998Y-83560D01*
G01X935453Y-85227D01*
G37*
G36*
G01X934544Y-145227D02*
G01X934847Y-161136D01*
G01X934695Y-176894D01*
G01X933938Y-177651D01*
G01X929695Y-178712D01*
G01X928029Y-179167D01*
G01X926968Y-179470D01*
G01X925907Y-179621D01*
G01X925529Y-179621D01*
G01X925301Y-179318D01*
G01X925150Y-167651D01*
G01X925150Y-156439D01*
G01X924392Y-156591D01*
G01X923028Y-157045D01*
G01X921816Y-157500D01*
G01X920756Y-157803D01*
G01X919544Y-158257D01*
G01X918028Y-159015D01*
G01X916665Y-159621D01*
G01X915756Y-160076D01*
G01X914847Y-160682D01*
G01X911210Y-162954D01*
G01X910150Y-163712D01*
G01X908937Y-164621D01*
G01X907422Y-165833D01*
G01X904998Y-167651D01*
G01X903937Y-168712D01*
G01X902119Y-170227D01*
G01X899998Y-172045D01*
G01X899241Y-172803D01*
G01X896816Y-174621D01*
G01X896059Y-175379D01*
G01X892271Y-178409D01*
G01X891210Y-179015D01*
G01X888786Y-180530D01*
G01X887422Y-181439D01*
G01X884695Y-182803D01*
G01X881968Y-184015D01*
G01X880907Y-184470D01*
G01X879847Y-184773D01*
G01X878635Y-185227D01*
G01X876968Y-185682D01*
G01X875453Y-186136D01*
G01X873483Y-186439D01*
G01X869847Y-186742D01*
G01X868028Y-186591D01*
G01X866665Y-186439D01*
G01X865301Y-186136D01*
G01X863180Y-185530D01*
G01X861968Y-184924D01*
G01X860604Y-184167D01*
G01X859392Y-183409D01*
G01X858483Y-182651D01*
G01X857725Y-181894D01*
G01X856816Y-180833D01*
G01X856059Y-179773D01*
G01X855453Y-178712D01*
G01X854847Y-177348D01*
G01X854392Y-175985D01*
G01X854089Y-174167D01*
G01X853786Y-172045D01*
G01X853786Y-169621D01*
G01X854089Y-167803D01*
G01X854392Y-166439D01*
G01X854847Y-164924D01*
G01X855453Y-163561D01*
G01X856210Y-162045D01*
G01X857271Y-160530D01*
G01X858180Y-159318D01*
G01X858938Y-158561D01*
G01X860150Y-157651D01*
G01X861513Y-156591D01*
G01X862725Y-155833D01*
G01X864089Y-155076D01*
G01X866816Y-153712D01*
G01X868028Y-153258D01*
G01X869392Y-152803D01*
G01X870604Y-152500D01*
G01X871097Y-152689D01*
G01X871362Y-153258D01*
G01X871665Y-154470D01*
G01X872271Y-157500D01*
G01X872574Y-158712D01*
G01X873028Y-160076D01*
G01X873104Y-160606D01*
G01X872725Y-160985D01*
G01X871513Y-161439D01*
G01X870453Y-161742D01*
G01X869392Y-162197D01*
G01X868028Y-162803D01*
G01X866513Y-163712D01*
G01X865301Y-164621D01*
G01X864392Y-165682D01*
G01X863635Y-166894D01*
G01X863180Y-167954D01*
G01X862877Y-169015D01*
G01X862725Y-170985D01*
G01X863180Y-173257D01*
G01X863938Y-174470D01*
G01X864695Y-175076D01*
G01X865604Y-175530D01*
G01X866968Y-176136D01*
G01X868483Y-176439D01*
G01X869544Y-176591D01*
G01X871513Y-176742D01*
G01X873483Y-176591D01*
G01X875604Y-176288D01*
G01X876968Y-175833D01*
G01X878635Y-175227D01*
G01X879998Y-174773D01*
G01X881059Y-174318D01*
G01X882271Y-173712D01*
G01X883635Y-172954D01*
G01X884695Y-172348D01*
G01X885453Y-171894D01*
G01X886513Y-171136D01*
G01X888028Y-170076D01*
G01X890453Y-168257D01*
G01X891513Y-167348D01*
G01X892271Y-166742D01*
G01X893028Y-165985D01*
G01X894544Y-164773D01*
G01X895301Y-164015D01*
G01X896513Y-163106D01*
G01X897574Y-162197D01*
G01X898331Y-161591D01*
G01X899089Y-160833D01*
G01X900907Y-159318D01*
G01X901665Y-158712D01*
G01X902422Y-158257D01*
G01X903180Y-157651D01*
G01X904392Y-156742D01*
G01X905907Y-155682D01*
G01X908634Y-153864D01*
G01X911665Y-152045D01*
G01X915604Y-150076D01*
G01X916968Y-149470D01*
G01X919089Y-148561D01*
G01X920604Y-147954D01*
G01X922271Y-147348D01*
G01X923786Y-146894D01*
G01X924998Y-146591D01*
G01X926513Y-146136D01*
G01X928635Y-145682D01*
G01X930453Y-145227D01*
G01X932271Y-144924D01*
G01X933786Y-144773D01*
G01X934203Y-144810D01*
G01X934544Y-145227D01*
G37*
G36*
G01X934544Y89015D02*
G01X934847Y73106D01*
G01X934695Y57349D01*
G01X934089Y56591D01*
G01X933029Y56288D01*
G01X930604Y55682D01*
G01X929544Y55530D01*
G01X928180Y55076D01*
G01X926210Y54621D01*
G01X925150Y54470D01*
G01X925150Y77803D01*
G01X924544Y77652D01*
G01X923483Y77349D01*
G01X922119Y76894D01*
G01X919089Y75682D01*
G01X917725Y75076D01*
G01X915907Y74167D01*
G01X914695Y73409D01*
G01X913180Y72500D01*
G01X910453Y70682D01*
G01X908937Y69621D01*
G01X907422Y68409D01*
G01X906210Y67500D01*
G01X905453Y66743D01*
G01X903937Y65530D01*
G01X903180Y64773D01*
G01X901968Y63864D01*
G01X900453Y62652D01*
G01X899392Y61591D01*
G01X896665Y59318D01*
G01X895756Y58712D01*
G01X894998Y58106D01*
G01X894241Y57349D01*
G01X893483Y56743D01*
G01X892725Y56288D01*
G01X891665Y55530D01*
G01X888938Y53712D01*
G01X887725Y52955D01*
G01X886665Y52349D01*
G01X885301Y51743D01*
G01X884241Y51137D01*
G01X883331Y50682D01*
G01X879695Y49318D01*
G01X878180Y48864D01*
G01X876816Y48561D01*
G01X875604Y48106D01*
G01X873786Y47803D01*
G01X872271Y47652D01*
G01X869998Y47500D01*
G01X867725Y47652D01*
G01X866513Y47803D01*
G01X865150Y48106D01*
G01X863786Y48561D01*
G01X862574Y49015D01*
G01X861513Y49470D01*
G01X860604Y49924D01*
G01X859544Y50682D01*
G01X858483Y51591D01*
G01X856968Y53106D01*
G01X856210Y54167D01*
G01X855453Y55530D01*
G01X854847Y56743D01*
G01X854392Y58258D01*
G01X853786Y61894D01*
G01X853786Y64318D01*
G01X854089Y66137D01*
G01X854241Y67197D01*
G01X854544Y68258D01*
G01X855453Y70682D01*
G01X855907Y71591D01*
G01X856513Y72652D01*
G01X857271Y73712D01*
G01X858029Y74470D01*
G01X858635Y75227D01*
G01X859241Y75834D01*
G01X859998Y76440D01*
G01X860907Y77197D01*
G01X862119Y77955D01*
G01X863483Y78712D01*
G01X864544Y79318D01*
G01X865301Y79773D01*
G01X866210Y80227D01*
G01X867574Y80834D01*
G01X869089Y81288D01*
G01X870150Y81591D01*
G01X870907Y81743D01*
G01X871362Y80834D01*
G01X872271Y76743D01*
G01X872574Y75530D01*
G01X872877Y74015D01*
G01X872763Y73371D01*
G01X872119Y72955D01*
G01X870301Y72349D01*
G01X868786Y71743D01*
G01X867422Y71137D01*
G01X866362Y70379D01*
G01X864544Y68561D01*
G01X863938Y67803D01*
G01X863332Y66591D01*
G01X862877Y65227D01*
G01X862725Y63258D01*
G01X863180Y60985D01*
G01X863938Y59773D01*
G01X864998Y59015D01*
G01X866210Y58409D01*
G01X867422Y57955D01*
G01X869241Y57652D01*
G01X871816Y57500D01*
G01X873786Y57652D01*
G01X875907Y57955D01*
G01X877119Y58409D01*
G01X878483Y58864D01*
G01X879695Y59318D01*
G01X880756Y59773D01*
G01X883483Y61137D01*
G01X884847Y61894D01*
G01X886968Y63409D01*
G01X888331Y64318D01*
G01X889392Y65227D01*
G01X890907Y66440D01*
G01X894544Y69470D01*
G01X895301Y70227D01*
G01X896513Y71137D01*
G01X897574Y72046D01*
G01X898331Y72652D01*
G01X899089Y73409D01*
G01X899998Y74167D01*
G01X900907Y74773D01*
G01X901665Y75379D01*
G01X902877Y76288D01*
G01X904241Y77349D01*
G01X906362Y78864D01*
G01X907574Y79621D01*
G01X908483Y80227D01*
G01X910604Y81440D01*
G01X911513Y82046D01*
G01X912574Y82652D01*
G01X914998Y83864D01*
G01X917119Y84773D01*
G01X918028Y85228D01*
G01X919089Y85682D01*
G01X920604Y86288D01*
G01X922422Y86894D01*
G01X923938Y87349D01*
G01X924998Y87652D01*
G01X926362Y87955D01*
G01X927877Y88409D01*
G01X930604Y89015D01*
G01X932271Y89318D01*
G01X933786Y89470D01*
G01X934203Y89432D01*
G01X934544Y89015D01*
G37*
G36*
G01X934241Y28409D02*
G01X934544Y23561D01*
G01X934544Y18712D01*
G01X933635Y18712D01*
G01X932271Y18561D01*
G01X930756Y18258D01*
G01X929089Y18106D01*
G01X928029Y17955D01*
G01X926513Y17652D01*
G01X924089Y17349D01*
G01X921816Y17046D01*
G01X920453Y16743D01*
G01X917119Y16440D01*
G01X915453Y16137D01*
G01X914506Y15834D01*
G01X914089Y15228D01*
G01X913937Y11894D01*
G01X913937Y9318D01*
G01X912877Y9015D01*
G01X910604Y8712D01*
G01X908937Y8561D01*
G01X907119Y8258D01*
G01X905453Y7955D01*
G01X905188Y8030D01*
G01X904998Y8561D01*
G01X904847Y11894D01*
G01X904847Y14470D01*
G01X904089Y14470D01*
G01X902877Y14318D01*
G01X900150Y14015D01*
G01X898937Y13712D01*
G01X897422Y13561D01*
G01X896210Y13409D01*
G01X893483Y13106D01*
G01X892271Y12803D01*
G01X890604Y12652D01*
G01X889241Y12500D01*
G01X887119Y12197D01*
G01X885604Y11894D01*
G01X883938Y11743D01*
G01X882877Y11591D01*
G01X881665Y11288D01*
G01X879998Y11137D01*
G01X878635Y10985D01*
G01X876210Y10682D01*
G01X874695Y10379D01*
G01X873028Y10228D01*
G01X871968Y10076D01*
G01X870453Y9773D01*
G01X868028Y9470D01*
G01X865756Y9167D01*
G01X864392Y8864D01*
G01X861362Y8561D01*
G01X857119Y7955D01*
G01X855907Y7803D01*
G01X854998Y8106D01*
G01X854847Y12803D01*
G01X854847Y17197D01*
G01X855604Y17500D01*
G01X858029Y18712D01*
G01X859089Y19318D01*
G01X859998Y19925D01*
G01X862725Y21440D01*
G01X866968Y23864D01*
G01X869392Y25379D01*
G01X870453Y25985D01*
G01X874089Y28258D01*
G01X875604Y29167D01*
G01X880453Y32197D01*
G01X881968Y33106D01*
G01X883331Y34015D01*
G01X884544Y34773D01*
G01X887271Y36591D01*
G01X888483Y37349D01*
G01X889847Y38258D01*
G01X891362Y39167D01*
G01X895453Y41894D01*
G01X896665Y42652D01*
G01X897574Y43258D01*
G01X898634Y44015D01*
G01X900150Y44924D01*
G01X902574Y46440D01*
G01X904089Y47500D01*
G01X905453Y48409D01*
G01X906513Y48864D01*
G01X907725Y49167D01*
G01X909240Y49470D01*
G01X910907Y49621D01*
G01X912271Y49773D01*
G01X913331Y49924D01*
G01X913786Y46894D01*
G01X914089Y28712D01*
G01X914544Y25682D01*
G01X915604Y25834D01*
G01X918331Y26137D01*
G01X919847Y26440D01*
G01X922271Y26743D01*
G01X924544Y27046D01*
G01X925907Y27349D01*
G01X928635Y27652D01*
G01X930756Y27955D01*
G01X932574Y28258D01*
G01X934241Y28409D01*
G37*
%LPC*%
G36*
G01X904695Y37652D02*
G01X904241Y37955D01*
G01X903331Y37652D01*
G01X899695Y35379D01*
G01X898786Y34773D01*
G01X897725Y34015D01*
G01X894695Y32197D01*
G01X889847Y29167D01*
G01X888331Y28258D01*
G01X887119Y27500D01*
G01X885907Y26894D01*
G01X884847Y26288D01*
G01X883786Y25531D01*
G01X880756Y23712D01*
G01X879241Y22955D01*
G01X878180Y22349D01*
G01X877271Y21743D01*
G01X874544Y20228D01*
G01X873635Y19470D01*
G01X873635Y19129D01*
G01X874241Y19015D01*
G01X877271Y19622D01*
G01X878635Y19773D01*
G01X879847Y20076D01*
G01X881362Y20379D01*
G01X883028Y20682D01*
G01X884392Y20985D01*
G01X886513Y21288D01*
G01X889544Y21894D01*
G01X891665Y22197D01*
G01X892877Y22500D01*
G01X894998Y22803D01*
G01X897271Y23106D01*
G01X898634Y23409D01*
G01X901665Y23712D01*
G01X903331Y24015D01*
G01X904279Y24318D01*
G01X904695Y24925D01*
G01X904847Y31591D01*
G01X904695Y37652D01*
G37*
%LPD*%
G36*
G01X934695Y175227D02*
G01X934847Y159621D01*
G01X934544Y143712D01*
G01X933483Y143106D01*
G01X931968Y142652D01*
G01X930150Y142197D01*
G01X928635Y141894D01*
G01X927119Y141440D01*
G01X925604Y141137D01*
G01X925263Y144053D01*
G01X925036Y161516D01*
G01X924695Y164318D01*
G01X923786Y164015D01*
G01X922725Y163712D01*
G01X919089Y162349D01*
G01X917725Y161743D01*
G01X916513Y161137D01*
G01X915453Y160531D01*
G01X913028Y159015D01*
G01X911665Y158106D01*
G01X908634Y155985D01*
G01X905604Y153561D01*
G01X904392Y152652D01*
G01X902877Y151137D01*
G01X901665Y150228D01*
G01X900150Y149015D01*
G01X898483Y147349D01*
G01X897422Y146591D01*
G01X896362Y145682D01*
G01X895604Y145076D01*
G01X894392Y144167D01*
G01X892877Y142955D01*
G01X891362Y141894D01*
G01X888634Y140076D01*
G01X887119Y139167D01*
G01X884392Y137803D01*
G01X882271Y136894D01*
G01X881059Y136440D01*
G01X879695Y135985D01*
G01X878028Y135379D01*
G01X875907Y134773D01*
G01X874241Y134470D01*
G01X873180Y134319D01*
G01X870150Y134167D01*
G01X867119Y134319D01*
G01X866059Y134470D01*
G01X864847Y134773D01*
G01X863483Y135228D01*
G01X862271Y135682D01*
G01X861362Y136137D01*
G01X860604Y136591D01*
G01X859695Y137197D01*
G01X858786Y137955D01*
G01X856968Y139773D01*
G01X856210Y140834D01*
G01X855453Y142046D01*
G01X854847Y143258D01*
G01X854392Y144925D01*
G01X853786Y148561D01*
G01X853786Y150985D01*
G01X854089Y152803D01*
G01X854241Y153864D01*
G01X854544Y154925D01*
G01X855453Y157349D01*
G01X855907Y158258D01*
G01X856665Y159470D01*
G01X857574Y160682D01*
G01X860301Y163409D01*
G01X861059Y164015D01*
G01X861968Y164470D01*
G01X863180Y165228D01*
G01X867119Y167197D01*
G01X868786Y167803D01*
G01X870150Y168258D01*
G01X870907Y168258D01*
G01X871362Y167349D01*
G01X871665Y166137D01*
G01X871968Y164621D01*
G01X872422Y162955D01*
G01X872725Y161591D01*
G01X872877Y160379D01*
G01X872801Y159962D01*
G01X872271Y159621D01*
G01X870756Y159167D01*
G01X869695Y158712D01*
G01X868786Y158258D01*
G01X867725Y157803D01*
G01X866513Y157046D01*
G01X865453Y156137D01*
G01X864695Y155379D01*
G01X863938Y154470D01*
G01X863332Y153106D01*
G01X862877Y151591D01*
G01X862725Y149621D01*
G01X863029Y147803D01*
G01X863635Y146743D01*
G01X864392Y145985D01*
G01X865301Y145379D01*
G01X866665Y144773D01*
G01X868938Y144318D01*
G01X871968Y144167D01*
G01X874089Y144318D01*
G01X875756Y144622D01*
G01X877271Y145076D01*
G01X878483Y145531D01*
G01X879847Y145985D01*
G01X881968Y146894D01*
G01X883028Y147500D01*
G01X884392Y148258D01*
G01X885907Y149167D01*
G01X888028Y150682D01*
G01X889089Y151591D01*
G01X889998Y152349D01*
G01X890907Y152955D01*
G01X891665Y153561D01*
G01X892422Y154318D01*
G01X893938Y155531D01*
G01X894695Y156288D01*
G01X895907Y157197D01*
G01X897422Y158409D01*
G01X898483Y159470D01*
G01X900301Y160985D01*
G01X901059Y161591D01*
G01X901816Y162046D01*
G01X902574Y162652D01*
G01X903331Y163409D01*
G01X904241Y164015D01*
G01X905150Y164470D01*
G01X905907Y165076D01*
G01X906968Y165834D01*
G01X908331Y166743D01*
G01X909847Y167652D01*
G01X911059Y168409D01*
G01X912271Y169015D01*
G01X913634Y169773D01*
G01X914847Y170379D01*
G01X915907Y170834D01*
G01X918634Y172046D01*
G01X919695Y172500D01*
G01X922119Y173409D01*
G01X923180Y173712D01*
G01X924695Y174167D01*
G01X926513Y174621D01*
G01X928180Y175076D01*
G01X931816Y175379D01*
G01X934695Y175227D01*
G37*
G36*
G01X935453Y-198863D02*
G01X935756Y-201591D01*
G01X935604Y-204166D01*
G01X935301Y-205379D01*
G01X934998Y-206894D01*
G01X934544Y-208257D01*
G01X933938Y-209621D01*
G01X932726Y-211742D01*
G01X931968Y-212803D01*
G01X930150Y-214924D01*
G01X928635Y-216439D01*
G01X927574Y-217197D01*
G01X926210Y-218106D01*
G01X924998Y-218863D01*
G01X922574Y-220076D01*
G01X921513Y-220530D01*
G01X919089Y-221439D01*
G01X915907Y-222348D01*
G01X914392Y-222651D01*
G01X912271Y-223106D01*
G01X909847Y-223409D01*
G01X908028Y-223560D01*
G01X904998Y-223712D01*
G01X901968Y-223560D01*
G01X900604Y-223409D01*
G01X899089Y-223106D01*
G01X897725Y-222651D01*
G01X896513Y-222197D01*
G01X895453Y-221742D01*
G01X894544Y-221288D01*
G01X893786Y-220682D01*
G01X892271Y-219166D01*
G01X891362Y-218106D01*
G01X890604Y-216894D01*
G01X890150Y-215833D01*
G01X889544Y-215076D01*
G01X889127Y-215114D01*
G01X888786Y-215530D01*
G01X887877Y-216894D01*
G01X886968Y-218106D01*
G01X883635Y-221439D01*
G01X882877Y-222045D01*
G01X882119Y-222500D01*
G01X881059Y-223257D01*
G01X878331Y-224621D01*
G01X877271Y-225076D01*
G01X876210Y-225379D01*
G01X874695Y-225833D01*
G01X872271Y-226288D01*
G01X870150Y-226439D01*
G01X869089Y-226591D01*
G01X868332Y-226591D01*
G01X866665Y-226439D01*
G01X864847Y-226136D01*
G01X863483Y-225682D01*
G01X862271Y-225227D01*
G01X861362Y-224773D01*
G01X860301Y-224166D01*
G01X858938Y-223257D01*
G01X857877Y-222197D01*
G01X857119Y-221288D01*
G01X856513Y-220530D01*
G01X855907Y-219469D01*
G01X855301Y-218257D01*
G01X854847Y-217045D01*
G01X854544Y-215833D01*
G01X854241Y-214772D01*
G01X853938Y-210985D01*
G01X854241Y-207045D01*
G01X854695Y-205379D01*
G01X855150Y-203863D01*
G01X855756Y-202651D01*
G01X856665Y-201136D01*
G01X859998Y-197803D01*
G01X861059Y-196894D01*
G01X863483Y-195379D01*
G01X864998Y-194470D01*
G01X866665Y-193712D01*
G01X867877Y-193409D01*
G01X868332Y-194470D01*
G01X868786Y-196136D01*
G01X869089Y-197500D01*
G01X869241Y-198712D01*
G01X869695Y-200227D01*
G01X869847Y-201742D01*
G01X869089Y-202348D01*
G01X868028Y-202803D01*
G01X866968Y-203409D01*
G01X865604Y-204318D01*
G01X864544Y-205379D01*
G01X863786Y-206439D01*
G01X863180Y-208106D01*
G01X862877Y-209924D01*
G01X862877Y-211894D01*
G01X863635Y-213863D01*
G01X864847Y-214924D01*
G01X865907Y-215530D01*
G01X866968Y-215985D01*
G01X868028Y-216288D01*
G01X869544Y-216439D01*
G01X870907Y-216591D01*
G01X871665Y-216591D01*
G01X872877Y-216439D01*
G01X874241Y-216136D01*
G01X875756Y-215682D01*
G01X877119Y-215227D01*
G01X878180Y-214621D01*
G01X879089Y-214015D01*
G01X879847Y-213409D01*
G01X880756Y-212651D01*
G01X881816Y-211439D01*
G01X882725Y-210379D01*
G01X883483Y-209318D01*
G01X884241Y-208106D01*
G01X884847Y-206894D01*
G01X885453Y-205833D01*
G01X885907Y-204621D01*
G01X886362Y-203106D01*
G01X886665Y-201742D01*
G01X887119Y-200530D01*
G01X888331Y-199924D01*
G01X889998Y-199470D01*
G01X892119Y-199015D01*
G01X893938Y-198560D01*
G01X894430Y-198523D01*
G01X894695Y-199015D01*
G01X894847Y-202197D01*
G01X894998Y-205076D01*
G01X895604Y-207500D01*
G01X896059Y-208712D01*
G01X896968Y-210227D01*
G01X898028Y-211288D01*
G01X898786Y-211894D01*
G01X899847Y-212500D01*
G01X901059Y-213106D01*
G01X902119Y-213409D01*
G01X903180Y-213560D01*
G01X906968Y-213712D01*
G01X910756Y-213560D01*
G01X911816Y-213409D01*
G01X913028Y-213106D01*
G01X915756Y-212500D01*
G01X917271Y-212045D01*
G01X918634Y-211591D01*
G01X919998Y-210985D01*
G01X921513Y-210227D01*
G01X922725Y-209469D01*
G01X923635Y-208712D01*
G01X924392Y-207954D01*
G01X925150Y-207045D01*
G01X925756Y-205985D01*
G01X926210Y-204621D01*
G01X926513Y-203257D01*
G01X926513Y-201742D01*
G01X926059Y-200076D01*
G01X925453Y-199015D01*
G01X923938Y-197500D01*
G01X923028Y-196894D01*
G01X922119Y-196439D01*
G01X920907Y-195985D01*
G01X919544Y-195682D01*
G01X917725Y-195379D01*
G01X915453Y-195227D01*
G01X914544Y-195227D01*
G01X914544Y-194015D01*
G01X914695Y-192348D01*
G01X915453Y-187045D01*
G01X915642Y-186553D01*
G01X916210Y-186288D01*
G01X918483Y-186136D01*
G01X920453Y-186288D01*
G01X923180Y-186591D01*
G01X924392Y-186894D01*
G01X925756Y-187348D01*
G01X927119Y-187954D01*
G01X928332Y-188560D01*
G01X929392Y-189166D01*
G01X930301Y-189924D01*
G01X931059Y-190530D01*
G01X931665Y-190985D01*
G01X932422Y-192045D01*
G01X933483Y-193560D01*
G01X934241Y-195076D01*
G01X934847Y-196439D01*
G01X935453Y-198863D01*
G37*
G36*
G01X899241Y2197D02*
G01X899392Y-9318D01*
G01X899241Y-18068D01*
G01X898786Y-20985D01*
G01X893483Y-21742D01*
G01X891816Y-22045D01*
G01X890604Y-22197D01*
G01X890604Y834D01*
G01X893786Y1288D01*
G01X895604Y1591D01*
G01X897725Y1894D01*
G01X899241Y2197D01*
G37*
G36*
G01X899241Y-118560D02*
G01X899392Y-130076D01*
G01X899392Y-141591D01*
G01X896210Y-142045D01*
G01X894392Y-142348D01*
G01X892271Y-142651D01*
G01X891210Y-142651D01*
G01X890756Y-142348D01*
G01X890604Y-130833D01*
G01X890756Y-122538D01*
G01X891210Y-119772D01*
G01X894392Y-119318D01*
G01X896210Y-119015D01*
G01X898331Y-118712D01*
G01X899241Y-118560D01*
G37*
G04 Text End*

G04 PolygonModel Start*
G36*
G01X1417701Y-31999D02*
G01X1417701Y31999D01*
G01X1481699Y31999D01*
G01X1481699Y-31999D01*
G01X1417701Y-31999D01*
G37*
G36*
G01X1417701Y222001D02*
G01X1417701Y285999D01*
G01X1481699Y285999D01*
G01X1481699Y222001D01*
G01X1417701Y222001D01*
G37*
G36*
G01X1417701Y476001D02*
G01X1417701Y539999D01*
G01X1481699Y539999D01*
G01X1481699Y476001D01*
G01X1417701Y476001D01*
G37*
G36*
G01X1417701Y-539999D02*
G01X1417701Y-476001D01*
G01X1481699Y-476001D01*
G01X1481699Y-539999D01*
G01X1417701Y-539999D01*
G37*
G36*
G01X1417701Y-285999D02*
G01X1417701Y-222001D01*
G01X1481699Y-222001D01*
G01X1481699Y-285999D01*
G01X1417701Y-285999D01*
G37*

G04 TearDrop Start*
G36*
G01X1255650Y-6350D02*
G01X1255650Y6350D01*
G03X1274700Y15875I0J23813D01*
G01X1274700Y-15875D01*
G03X1255650Y-6350I-19050J-14288D01*
G37*
G36*
G01X1273468Y331251D02*
G01X1282449Y340231D01*
G03X1302654Y333496I16838J16838D01*
G01X1280204Y311045D01*
G03X1273468Y331251I-23573J3367D01*
G37*
G36*
G01X1229700Y-523000D02*
G01X1229700Y-493000D01*
G03X1274700Y-474000I0J62789D01*
G01X1274700Y-542000D01*
G03X1229700Y-523000I-45000J-43789D01*
G37*
G36*
G01X1229700Y-269000D02*
G01X1229700Y-239000D01*
G03X1274700Y-220000I0J62789D01*
G01X1274700Y-288000D01*
G03X1229700Y-269000I-45000J-43789D01*
G37*
G36*
G01X132094Y-602130D02*
G01X132094Y-589430D01*
G03X151144Y-585281I0J45798D01*
G01X151144Y-606280D01*
G03X132094Y-602130I-19050J-41648D01*
G37*
G36*
G01X-36562Y-15345D02*
G01X-6562Y-15345D01*
G03X-4061Y-37506I99472J1D01*
G01X-39062Y-37506D01*
G03X-36562Y-15345I-96972J22162D01*
G37*
G36*
G01X-6562Y-122506D02*
G01X-36562Y-122506D01*
G03X-39061Y-77506I-406247J1D01*
G01X-4062Y-77506D01*
G03X-6562Y-122506I403747J-44999D01*
G37*
G36*
G01X-93125Y-96964D02*
G01X-123125Y-96964D01*
G03X-125625Y-77506I-76972J0D01*
G01X-90625Y-77506D01*
G03X-93125Y-96964I74472J-19458D01*
G37*
G36*
G01X-36562Y-70010D02*
G01X-6562Y-70010D01*
G03X-4061Y-115010I406247J1D01*
G01X-39061Y-115010D01*
G03X-36562Y-70010I-403747J44999D01*
G37*
G36*
G01X-123125Y-96964D02*
G01X-93125Y-96964D01*
G03X-90625Y-115010I66378J0D01*
G01X-125625Y-115010D01*
G03X-123125Y-96964I-63878J18045D01*
G37*
G36*
G01X-650337Y617481D02*
G01X-640095Y603398D01*
G03X-649217Y576033I36487J-27365D01*
G01X-656217Y615939D01*
G03X-650337Y617481I-0J11979D01*
G37*
G36*
G01X627532Y-4380D02*
G01X627532Y25620D01*
G03X672532Y28120I1J406247D01*
G01X672532Y-6880D01*
G03X627532Y-4380I-44999J-403747D01*
G37*
G36*
G01X629997Y-309378D02*
G01X629997Y-279378D01*
G03X674997Y-276878I1J406247D01*
G01X674997Y-311877D01*
G03X629997Y-309378I-44999J-403747D01*
G37*
G36*
G01X-754645Y-196806D02*
G01X-724645Y-196806D01*
G03X-702145Y-241806I56250J0D01*
G01X-777146Y-241806D01*
G03X-754645Y-196806I-33750J45000D01*
G37*
G36*
G01X-585448Y-209550D02*
G01X-615448Y-209550D01*
G03X-632298Y-193093I-16850J-397D01*
G01X-568598Y-193093D01*
G03X-585448Y-209550I0J-16855D01*
G37*
G36*
G01X-624392Y388565D02*
G01X-645605Y367352D01*
G03X-678574Y383499I-40059J-40058D01*
G01X-632040Y413034D01*
G03X-624392Y388565I42970J-0D01*
G37*
G36*
G01X-803907Y6973D02*
G01X-803907Y-5727D01*
G03X-822957Y-13035I0J-28484D01*
G01X-822957Y13035D01*
G03X-803907Y6973I19050J26901D01*
G37*
G36*
G01X-710304Y29251D02*
G01X-719784Y20770D01*
G03X-739989Y27505I-20206J-26941D01*
G01X-717039Y49456D01*
G03X-710304Y29251I33676J0D01*
G37*
G36*
G01X-748389Y65205D02*
G01X-735689Y65205D01*
G03X-726164Y52505I13229J0D01*
G01X-757914Y52505D01*
G03X-748389Y65205I-3704J12700D01*
G37*
G36*
G01X-735689Y-65205D02*
G01X-748389Y-65205D01*
G03X-757914Y-52505I-13229J0D01*
G01X-726164Y-52505D01*
G03X-735689Y-65205I3704J-12700D01*
G37*
G36*
G01X-717863Y-20770D02*
G01X-709556Y-30423D01*
G03X-717039Y-49880I21551J-19457D01*
G01X-738069Y-27505D01*
G03X-717863Y-20770I0J33676D01*
G37*
G36*
G01X92839Y-469999D02*
G01X110039Y-469999D01*
G03X121439Y-491717I26387J-0D01*
G01X81439Y-491717D01*
G03X92839Y-469999I-14987J21718D01*
G37*
G36*
G01X147489Y-589430D02*
G01X147489Y-602130D01*
G03X128439Y-606280I0J-45798D01*
G01X128439Y-585281D01*
G03X147489Y-589430I19050J41648D01*
G37*
G36*
G01X-310185Y591349D02*
G01X-310185Y578649D01*
G03X-329235Y569124I0J-23813D01*
G01X-329235Y600874D01*
G03X-310185Y591349I19050J14288D01*
G37*
G36*
G01X-723677Y312801D02*
G01X-720862Y297656D01*
G01X-724979Y288621D01*
G01X-725590Y276432D01*
G01X-725308Y252604D01*
G01X-771486Y311112D01*
G01X-745207Y305684D01*
G01X-734585Y305857D01*
G01X-723677Y312801D01*
G37*
G36*
G01X302110Y-415367D02*
G01X302110Y-428067D01*
G03X283060Y-432218I0J-45798D01*
G01X283060Y-411217D01*
G03X302110Y-415367I19050J41648D01*
G37*
G36*
G01X302110Y-110368D02*
G01X302110Y-123068D01*
G03X283060Y-127218I-0J-45798D01*
G01X283060Y-106218D01*
G03X302110Y-110368I19050J41648D01*
G37*
G36*
G01X388448Y-489673D02*
G01X388448Y-502373D01*
G03X369398Y-511898I0J-23813D01*
G01X369398Y-480148D01*
G03X388448Y-489673I19050J14288D01*
G37*
G36*
G01X296648Y-428067D02*
G01X290348Y-415367D01*
G03X309398Y-405842I0J23813D01*
G01X315698Y-431027D01*
G03X296648Y-428067I-19050J-59840D01*
G37*
G36*
G01X414398Y-294999D02*
G01X414398Y-324999D01*
G03X369398Y-329731I0J-216368D01*
G01X369398Y-282331D01*
G03X414398Y-294999I45000J73586D01*
G37*
G36*
G01X586038Y-350606D02*
G01X564825Y-329393D01*
G03X579400Y-282998I-66553J46395D01*
G01X632433Y-336031D01*
G03X586038Y-350606I0J-81128D01*
G37*
G36*
G01X678100Y-279378D02*
G01X684400Y-309378D01*
G03X639400Y-329731I0J-59923D01*
G01X633100Y-276031D01*
G03X678100Y-279378I45000J300839D01*
G37*
G36*
G01X388448Y-184673D02*
G01X388448Y-197373D01*
G03X369398Y-206898I0J-23813D01*
G01X369398Y-175148D01*
G03X388448Y-184673I19050J14288D01*
G37*
G36*
G01X296648Y-123068D02*
G01X290348Y-110368D01*
G03X309398Y-100843I0J23813D01*
G01X315698Y-126027D01*
G03X296648Y-123068I-19050J-59840D01*
G37*
G36*
G01X264398Y-16031D02*
G01X264398Y13969D01*
G03X309398Y22669I0J120729D01*
G01X309398Y-24731D01*
G03X264398Y-16031I-45000J-112029D01*
G37*
G36*
G01X534400Y-5000D02*
G01X540700Y25000D01*
G03X585700Y28969I0J257101D01*
G01X579400Y-24731D01*
G03X534400Y-5000I-45000J-41449D01*
G37*
G36*
G01X678100Y25620D02*
G01X684400Y-4380D01*
G03X639400Y-24731I0J-59927D01*
G01X633100Y28969D01*
G03X678100Y25620I45000J300678D01*
G37*
G36*
G01X-843049Y70516D02*
G01X-852029Y79496D01*
G03X-845780Y99216I-27989J19719D01*
G01X-823155Y76939D01*
G03X-843049Y70516I0J-34018D01*
G37*
G36*
G01X-735367Y65528D02*
G01X-748067Y65528D01*
G03X-752217Y76939I-17764J0D01*
G01X-731217Y76939D01*
G03X-735367Y65528I13614J-11411D01*
G37*
G36*
G01X-852029Y-79484D02*
G01X-841227Y-72325D01*
G03X-821022Y-79060I20206J26941D01*
G01X-845780Y-86060D01*
G03X-852029Y-79484I-131915J-119091D01*
G37*
G36*
G01X-748067Y-65528D02*
G01X-735367Y-65528D01*
G03X-731217Y-79060I24138J-0D01*
G01X-752217Y-79060D01*
G03X-748067Y-65528I-19988J13532D01*
G37*
G36*
G01X727488Y300081D02*
G01X721585Y288024D01*
G03X713753Y288336I-7833J-98118D01*
G01X720753Y320287D01*
G03X727488Y300081I33676J-0D01*
G37*
G36*
G01X597630Y287296D02*
G01X592454Y300081D01*
G03X599190Y320287I-26941J20206D01*
G01X606190Y288336D01*
G03X597630Y287296I0J-35753D01*
G37*
G36*
G01X723040Y269104D02*
G01X727488Y255591D01*
G03X720753Y235386I26940J-20205D01*
G01X713752Y267337D01*
G03X723040Y269104I-0J25286D01*
G37*
G36*
G01X592454Y255592D02*
G01X597630Y268377D01*
G03X606190Y267337I8560J34713D01*
G01X599190Y235386D01*
G03X592454Y255592I-33676J-0D01*
G37*
G36*
G01X-592486Y329022D02*
G01X-583038Y320509D01*
G03X-583075Y315286I373700J-5229D01*
G01X-612692Y322287D01*
G03X-592486Y329022I0J33676D01*
G37*
G36*
G01X-583019Y200148D02*
G01X-594821Y193988D01*
G03X-615026Y200724I-20206J-26941D01*
G01X-583075Y207723D01*
G03X-583019Y200148I514553J7D01*
G37*
G36*
G01X-562017Y320526D02*
G01X-551956Y328425D01*
G03X-531751Y321690I20205J26941D01*
G01X-564044Y314690D01*
G02X-563336Y317757I7000J0D01*
G03X-562017Y320526I-2247J2769D01*
G37*
G36*
G01X-552298Y193392D02*
G01X-564099Y199551D01*
G03X-564044Y207127I-516641J7582D01*
G01X-532093Y200127D01*
G03X-552298Y193392I0J-33676D01*
G37*
G36*
G01X-862667Y81356D02*
G01X-862667Y68656D01*
G01X-870280Y65982D01*
G01X-876667Y60099D01*
G01X-876667Y89913D01*
G01X-870280Y84030D01*
G01X-862667Y81356D01*
G37*
G36*
G01X-862667Y-68643D02*
G01X-862667Y-81343D01*
G01X-870280Y-84018D01*
G01X-876667Y-89901D01*
G01X-876667Y-60086D01*
G01X-870280Y-65969D01*
G01X-862667Y-68643D01*
G37*
G36*
G01X-825748Y-5727D02*
G01X-825748Y6973D01*
G01X-817127Y10229D01*
G01X-809998Y17393D01*
G01X-809998Y-16148D01*
G01X-817127Y-8984D01*
G01X-825748Y-5727D01*
G37*
G36*
G01X-234749Y73650D02*
G01X-240616Y85391D01*
G01X-236665Y90087D01*
G01X-237424Y99351D01*
G01X-214337Y75020D01*
G01X-234749Y73650D01*
G37*
G36*
G01X-240615Y44606D02*
G01X-234749Y56347D01*
G01X-214336Y54977D01*
G01X-237424Y30647D01*
G01X-236665Y39910D01*
G01X-240615Y44606D01*
G37*
G36*
G01X-604850Y148453D02*
G01X-613830Y139472D01*
G01X-621065Y140720D01*
G01X-629154Y140059D01*
G01X-605437Y163776D01*
G01X-606098Y155688D01*
G01X-604850Y148453D01*
G37*
G36*
G01X-613830Y120552D02*
G01X-604850Y111572D01*
G01X-606098Y104337D01*
G01X-605437Y96248D01*
G01X-629154Y119966D01*
G01X-621065Y119304D01*
G01X-613830Y120552D01*
G37*
G36*
G01X-5500Y-458032D02*
G01X-14481Y-467013D01*
G01X-21190Y-466290D01*
G01X-28754Y-467477D01*
G01X-5037Y-443759D01*
G01X-6223Y-451323D01*
G01X-5500Y-458032D01*
G37*
G36*
G01X-12379Y-485932D02*
G01X-3399Y-494913D01*
G01X-6127Y-502246D01*
G01X-5037Y-511287D01*
G01X-28754Y-487570D01*
G01X-19713Y-488661D01*
G01X-12379Y-485932D01*
G37*
G36*
G01X-208650Y-63249D02*
G01X-221350Y-63249D01*
G01X-224606Y-54628D01*
G01X-231770Y-47499D01*
G01X-198229Y-47499D01*
G01X-205393Y-54628D01*
G01X-208650Y-63249D01*
G37*
G36*
G01X-221350Y-131749D02*
G01X-208650Y-131749D01*
G01X-205393Y-140370D01*
G01X-198229Y-147499D01*
G01X-231770Y-147499D01*
G01X-224606Y-140370D01*
G01X-221350Y-131749D01*
G37*
G36*
G01X-6562Y-38786D02*
G01X-36562Y-31095D01*
G01X-32882Y-16015D01*
G01X-29355Y-936D01*
G01X-4688Y-23036D01*
G01X-8249Y-24719D01*
G01X-8530Y-28273D01*
G01X-6562Y-38786D01*
G37*
G36*
G01X934488Y399479D02*
G01X925508Y408459D01*
G01X926239Y414979D01*
G01X925158Y422357D01*
G01X947810Y397621D01*
G01X940727Y399551D01*
G01X934488Y399479D01*
G37*
G36*
G01X925508Y371579D02*
G01X934488Y380559D01*
G01X940727Y380487D01*
G01X947810Y382418D01*
G01X925158Y357681D01*
G01X926239Y365059D01*
G01X925508Y371579D01*
G37*
G36*
G01X937390Y-371487D02*
G01X928410Y-362507D01*
G01X928926Y-356004D01*
G01X927533Y-348647D01*
G01X951250Y-372364D01*
G01X943893Y-370971D01*
G01X937390Y-371487D01*
G37*
G36*
G01X-265031Y301786D02*
G01X-274011Y310766D01*
G01X-274052Y316712D01*
G01X-276002Y323512D01*
G01X-252285Y299794D01*
G01X-259085Y301745D01*
G01X-265031Y301786D01*
G37*
G36*
G01X-547824Y600661D02*
G01X-535661Y612824D01*
G01X-527874Y608647D01*
G01X-518747Y607464D01*
G01X-542464Y583747D01*
G01X-543647Y592874D01*
G01X-547824Y600661D01*
G37*
G36*
G01X-339319Y578649D02*
G01X-339319Y591349D01*
G01X-330698Y594605D01*
G01X-323569Y601769D01*
G01X-323569Y568228D01*
G01X-330698Y575392D01*
G01X-339319Y578649D01*
G37*
G36*
G01X-709752Y308765D02*
G01X-718733Y317745D01*
G01X-714939Y326144D01*
G01X-714964Y336251D01*
G01X-691247Y312534D01*
G01X-701354Y312559D01*
G01X-709752Y308765D01*
G37*
G36*
G01X389249Y-197373D02*
G01X389249Y-184673D01*
G01X397870Y-181417D01*
G01X404999Y-174253D01*
G01X404999Y-207794D01*
G01X397870Y-200630D01*
G01X389249Y-197373D01*
G37*
G36*
G01X410798Y-483180D02*
G01X395290Y-480728D01*
G01X399109Y-471677D01*
G01X398057Y-461221D01*
G01X427386Y-477494D01*
G01X410798Y-483180D01*
G37*
G36*
G01X109841Y-602130D02*
G01X108676Y-589430D01*
G01X117355Y-586096D01*
G01X124426Y-578759D01*
G01X125591Y-612280D01*
G01X118405Y-605302D01*
G01X109841Y-602130D01*
G37*
G36*
G01X171323Y-589430D02*
G01X170158Y-602130D01*
G01X161594Y-605302D01*
G01X154408Y-612280D01*
G01X155573Y-578759D01*
G01X162644Y-586096D01*
G01X171323Y-589430D01*
G37*
G36*
G01X1265748Y6350D02*
G01X1265748Y-6350D01*
G01X1257126Y-9607D01*
G01X1249998Y-16771D01*
G01X1249998Y16771D01*
G01X1257126Y9607D01*
G01X1265748Y6350D01*
G37*
G36*
G01X1243321Y-239000D02*
G01X1243321Y-269000D01*
G01X1234789Y-268164D01*
G01X1227571Y-270771D01*
G01X1227571Y-237229D01*
G01X1234789Y-239836D01*
G01X1243321Y-239000D01*
G37*
G36*
G01X1245821Y-493000D02*
G01X1245821Y-523000D01*
G01X1237289Y-522164D01*
G01X1230071Y-524771D01*
G01X1230071Y-491229D01*
G01X1237289Y-493836D01*
G01X1245821Y-493000D01*
G37*
G36*
G01X545749Y-324999D02*
G01X545749Y-354999D01*
G01X537217Y-354163D01*
G01X529999Y-356770D01*
G01X529999Y-323229D01*
G01X537217Y-325835D01*
G01X545749Y-324999D01*
G37*
G36*
G01X545749Y25000D02*
G01X545749Y-5000D01*
G01X537217Y-4164D01*
G01X529999Y-6771D01*
G01X529999Y26771D01*
G01X537217Y24164D01*
G01X545749Y25000D01*
G37*
G36*
G01X-615448Y-179587D02*
G01X-585448Y-178918D01*
G01X-586239Y-187481D01*
G01X-583531Y-194668D01*
G01X-617066Y-195337D01*
G01X-614562Y-188090D01*
G01X-615448Y-179587D01*
G37*
G36*
G01X280435Y13969D02*
G01X289858Y-16031D01*
G01X280765Y-15441D01*
G01X274108Y-19233D01*
G01X264685Y12957D01*
G01X280435Y13969D01*
G37*
G36*
G01X-903908Y-192661D02*
G01X-882694Y-213874D01*
G01X-889319Y-219316D01*
G01X-892579Y-226263D01*
G01X-916297Y-202546D01*
G01X-909350Y-199285D01*
G01X-903908Y-192661D01*
G37*
G36*
G01X-898861Y282350D02*
G01X-877648Y261137D01*
G01X-884273Y255694D01*
G01X-887533Y248748D01*
G01X-911250Y272465D01*
G01X-904303Y275725D01*
G01X-898861Y282350D01*
G37*
G36*
G01X-874248Y454999D02*
G01X-874248Y424999D01*
G01X-882781Y425835D01*
G01X-889998Y423229D01*
G01X-889998Y456770D01*
G01X-882781Y454163D01*
G01X-874248Y454999D01*
G37*
G36*
G01X-665998Y387745D02*
G01X-638853Y403026D01*
G01X-628167Y391437D01*
G01X-657063Y374406D01*
G01X-659216Y381777D01*
G01X-665998Y387745D01*
G37*
G36*
G01X110039Y-500749D02*
G01X92839Y-500749D01*
G01X90286Y-492289D01*
G01X84669Y-484999D01*
G01X118210Y-484999D01*
G01X112593Y-492289D01*
G01X110039Y-500749D01*
G37*
G36*
G01X504999Y-220750D02*
G01X474999Y-220750D01*
G01X475835Y-212217D01*
G01X473228Y-205000D01*
G01X506770Y-205000D01*
G01X504163Y-212217D01*
G01X504999Y-220750D01*
G37*
G36*
G01X-144250Y-82500D02*
G01X-144250Y-112500D01*
G01X-152782Y-111664D01*
G01X-160000Y-114271D01*
G01X-160000Y-80730D01*
G01X-152782Y-83336D01*
G01X-144250Y-82500D01*
G37*
G36*
G01X429999Y-383649D02*
G01X429999Y-396349D01*
G01X425876Y-400583D01*
G01X422499Y-406770D01*
G01X422499Y-373229D01*
G01X425876Y-379416D01*
G01X429999Y-383649D01*
G37*
G36*
G01X-754645Y-266806D02*
G03X-784645Y-193093I-105561J0D01*
G01X-739645Y-178093D01*
G01X-700448Y-193093D01*
G03X-724645Y-266806I100178J-73713D01*
G01X-754645Y-266806D01*
G37*
G36*
G01X-175000Y-112500D02*
G02X-123125Y-135010I0J-71030D01*
G01X-108125Y-96964D01*
G01X-123125Y-57506D01*
G02X-175000Y-82500I-51875J41335D01*
G01X-175000Y-112500D01*
G37*
G36*
G01X456349Y-350712D02*
G01X443649Y-350712D01*
G03X439499Y-320712I-110509J-0D01*
G01X460499Y-320712D01*
G03X456349Y-350712I106359J-29999D01*
G37*
G04 TearDrop End*

G04 Pad Start*
G54D10*
G01X-1029155Y540004D03*
G54D11*
G01X-1352141Y540004D03*
G01X-1352167Y-540004D03*
G54D10*
G01X-1029155Y-540004D03*
G54D12*
G01X1449700Y508000D03*
G01X1449700Y0D03*
G01X1449700Y254000D03*
G01X1449700Y-508000D03*
G01X1449700Y-254000D03*
G54D13*
G01X178144Y-509217D03*
G01X178144Y-595780D03*
G54D14*
G01X-21562Y-57506D03*
G01X-108125Y-57506D03*
G01X-21562Y-135010D03*
G01X-108125Y-135010D03*
G54D16*
G01X-753280Y588938D03*
G01X-666717Y588938D03*
G54D17*
G01X692533Y-75943D03*
G01X692533Y10620D03*
G01X694997Y-380941D03*
G01X694997Y-294378D03*
G54D18*
G01X-739645Y-588573D03*
G01X-739645Y-266806D03*
G54D19*
G01X-600448Y-178093D03*
G01X-700448Y-178093D03*
G54D20*
G01X-657040Y399999D03*
G54D21*
G01X-762958Y359994D03*
G01X-762958Y440004D03*
G54D22*
G01X-847957Y0D03*
G54D23*
G01X-742039Y40005D03*
G01X-742039Y-40005D03*
G54D24*
G01X101439Y-509217D03*
G01X101439Y-595780D03*
G54D14*
G01X-346735Y586089D03*
G01X-433298Y586089D03*
G54D25*
G01X-774562Y261206D03*
G54D17*
G01X256060Y-508281D03*
G01X256060Y-421717D03*
G01X256060Y-203281D03*
G01X256060Y-116718D03*
G54D26*
G01X339398Y-496023D03*
G01X339398Y-401027D03*
G01X339398Y-306031D03*
G01X609400Y-306031D03*
G01X609400Y-401027D03*
G01X609400Y-496023D03*
G01X339398Y-191023D03*
G01X339398Y-96027D03*
G01X339398Y-1031D03*
G01X609400Y-1031D03*
G01X609400Y-96027D03*
G01X609400Y-191023D03*
G54D16*
G01X-828280Y103939D03*
G01X-741717Y103939D03*
G01X-828280Y-106060D03*
G01X-741717Y-106060D03*
G54D14*
G01X703253Y315336D03*
G01X616689Y315336D03*
G01X703253Y240337D03*
G01X616689Y240337D03*
G54D24*
G01X-610075Y304787D03*
G01X-610075Y218223D03*
G01X-537044Y304190D03*
G01X-537044Y217627D03*
G04 Pad End*

G04 Via Start*
G54D27*
G01X-890001Y75006D03*
G54D28*
G01X-915000Y24994D03*
G01X-915000Y-24994D03*
G54D27*
G01X-890001Y-74993D03*
G54D28*
G01X-915000Y125442D03*
G54D29*
G01X-794998Y623D03*
G01X-215000Y97511D03*
G01X-215000Y32487D03*
G01X-627902Y162524D03*
G01X-627902Y97500D03*
G01X-573900Y429986D03*
G01X-573900Y489999D03*
G01X-27502Y-445011D03*
G01X-27502Y-510035D03*
G01X-215000Y-32499D03*
G01X-215000Y-162499D03*
G01X-6857Y106857D03*
G01X75000Y234950D03*
G01X-6857Y-641D03*
G01X158139Y-641D03*
G01X73143Y-103141D03*
G01X115000Y170000D03*
G01X45000Y-45000D03*
G01X-299999Y384999D03*
G01X-15001Y510030D03*
G01X-15001Y450017D03*
G01X947546Y420119D03*
G01X947546Y359919D03*
G01X949998Y-349899D03*
G01X949998Y-410100D03*
G01X-318561Y322260D03*
G01X-253537Y322260D03*
G01X-574999Y-534986D03*
G01X-391162Y0D03*
G01X-451175Y0D03*
G01X-391281Y130278D03*
G01X-451294Y130278D03*
G01X-575059Y-379999D03*
G01X-874998Y-430006D03*
G01X-874998Y-369993D03*
G01X848326Y-487499D03*
G01X844645Y497552D03*
G01X845346Y219999D03*
G01X869998Y-282500D03*
G01X735636Y-238584D03*
G01X737498Y167500D03*
G01X-574999Y554999D03*
G01X-519999Y584999D03*
G01X-877498Y368939D03*
G01X-308569Y584999D03*
G01X-25000Y-377499D03*
G01X-524999Y-572499D03*
G01X-692499Y334999D03*
G01X-464999Y259999D03*
G01X419999Y-191023D03*
G01X419999Y-456241D03*
G01X-864998Y-264999D03*
G01X-649999Y-330862D03*
G01X140000Y-594999D03*
G01X-37500Y-589998D03*
G01X-299999Y-584999D03*
G01X-214999Y-222500D03*
G01X-599999Y-65000D03*
G01X-35000Y-205000D03*
G01X1234998Y0D03*
G01X-337500Y-534986D03*
G01X419999Y-254999D03*
G01X534999Y217500D03*
G01X1212571Y-254000D03*
G01X1215071Y-508000D03*
G01X514999Y-339999D03*
G01X514999Y10000D03*
G01X-599999Y-210000D03*
G01X255001Y-7352D03*
G01X737499Y-137499D03*
G01X484999Y-50559D03*
G01X-915045Y-225011D03*
G01X-909998Y250000D03*
G01X-904998Y439999D03*
G01X-840786Y-550163D03*
G01X-932546Y-447522D03*
G01X-634999Y369999D03*
G01X101439Y-469999D03*
G01X174998Y-311031D03*
G01X339998Y167500D03*
G01X414999Y120000D03*
G01X489999Y-190000D03*
G01X-175000Y-97500D03*
G01X407499Y-389999D03*
G01X474999Y392300D03*
G01X-42500Y330000D03*
G01X414999Y-50000D03*
G01X-220000Y272499D03*
G01X-460016Y586090D03*
G01X-463133Y-535871D03*
G01X-349999Y-279999D03*
G01X-432085Y485949D03*
G01X1204998Y65000D03*
G01X1204998Y-65000D03*
G04 Via End*

G04 Track Start*
G54D30*
G01X-890001Y75006D02*
G01X-847539Y75006D01*
G01X-828280Y94265D01*
G01X-828280Y103939D01*
G01X-890001Y-74993D02*
G01X-847539Y-74993D01*
G01X-828280Y-94252D01*
G01X-828280Y-103927D01*
G01X-741717Y103939D02*
G01X-741717Y65528D01*
G01X-742039Y65205D01*
G01X-742039Y40005D01*
G01X-741717Y-106060D02*
G01X-741717Y-65528D01*
G01X-742039Y-65205D01*
G01X-742039Y-40005D01*
G01X-847957Y0D02*
G01X-847334Y623D01*
G01X-794998Y623D01*
G01X-227411Y85099D02*
G01X-215000Y97511D01*
G01X-227411Y44898D02*
G01X-215000Y32487D01*
G01X-590400Y39599D02*
G01X-588021Y41978D01*
G01X-570671Y19870D02*
G01X-568292Y22249D01*
G01X-498765Y78949D02*
G01X-242260Y78949D01*
G01X-498765Y51049D02*
G01X-242260Y51049D01*
G01X-742039Y40005D02*
G01X-730039Y40005D01*
G01X-710134Y20101D01*
G01X-695285Y13950D02*
G01X-652322Y13950D01*
G01X-742039Y-40005D02*
G01X-728118Y-40005D01*
G01X-708214Y-20101D01*
G01X-693365Y-13950D02*
G01X-652322Y-13950D01*
G01X-609340Y143962D02*
G01X-627902Y162524D01*
G01X-609340Y116062D02*
G01X-627902Y97500D01*
G01X-610075Y218223D02*
G01X-587509Y195657D01*
G01X-537044Y217626D02*
G01X-559609Y195061D01*
G01X-587509Y195657D02*
G01X-587509Y165793D01*
G01X-559609Y195061D02*
G01X-559609Y165793D01*
G01X-573900Y489999D02*
G01X-557844Y473943D01*
G01X-557844Y446043D02*
G01X-573900Y429986D01*
G01X-557844Y473943D02*
G01X-534608Y473943D01*
G01X-534608Y446043D02*
G01X-557844Y446043D01*
G01X-479999Y419333D02*
G01X-479999Y413744D01*
G01X-507899Y413744D02*
G01X-507899Y419333D01*
G01X-557527Y336216D02*
G01X-557527Y325016D01*
G01X-607741Y304787D02*
G01X-587529Y324999D01*
G01X-610075Y304787D02*
G01X-607741Y304787D01*
G01X-587529Y324999D02*
G01X-587529Y334115D01*
G01X-557527Y325016D02*
G01X-537044Y304532D01*
G01X-537044Y304190D01*
G01X-215000Y-74569D02*
G01X-215000Y-32499D01*
G01X-223980Y-83549D02*
G01X-215000Y-74569D01*
G01X-267787Y-111449D02*
G01X-223980Y-111449D01*
G01X-267787Y-83549D02*
G01X-223980Y-83549D01*
G01X-293960Y-123417D02*
G01X-292036Y-121493D01*
G01X-313688Y-103688D02*
G01X-311765Y-101765D01*
G01X38516Y-326575D02*
G01X29729Y-317788D01*
G01X18788Y-346304D02*
G01X10000Y-337516D01*
G01X-302099Y-187873D02*
G01X-302099Y-143068D01*
G01X-329999Y-187873D02*
G01X-329999Y-143068D01*
G01X-258234Y-252336D02*
G01X-287534Y-223036D01*
G01X-277963Y-272064D02*
G01X-307263Y-242764D01*
G01X-68465Y-277115D02*
G01X-198412Y-277115D01*
G01X-68465Y-305015D02*
G01X-198412Y-305015D01*
G01X67902Y-401735D02*
G01X67902Y-397519D01*
G01X40002Y-401735D02*
G01X40002Y-397519D01*
G01X37711Y-471769D02*
G01X39729Y-469750D01*
G01X17982Y-452041D02*
G01X20001Y-450022D01*
G01X-27502Y-445011D02*
G01X-9991Y-462523D01*
G01X-7323Y-462523D01*
G01X-27502Y-510035D02*
G01X-7889Y-490423D01*
G01X-7323Y-490423D01*
G01X1296060Y444360D02*
G01X1287920Y436220D01*
G01X1296060Y317640D02*
G01X1257127Y356573D01*
G01X1210059Y376069D02*
G01X1188577Y376069D01*
G01X1029726Y310271D02*
G01X1027765Y308309D01*
G01X1210059Y403969D02*
G01X1188577Y403969D01*
G01X727530Y264614D02*
G01X703253Y240337D01*
G01X922276Y264614D02*
G01X727530Y264614D01*
G01X1009998Y329999D02*
G01X1008036Y328037D01*
G01X726075Y292514D02*
G01X703253Y315336D01*
G01X922276Y292514D02*
G01X726075Y292514D01*
G01X-11057Y450017D02*
G01X5000Y466073D01*
G01X-15001Y450017D02*
G01X-11057Y450017D01*
G01X-11057Y510030D02*
G01X5000Y493974D01*
G01X-15001Y510030D02*
G01X-11057Y510030D01*
G01X739999Y444999D02*
G01X742113Y442885D01*
G01X720270Y425271D02*
G01X722384Y423157D01*
G01X5000Y493974D02*
G01X621764Y493974D01*
G01X5000Y466073D02*
G01X621764Y466073D01*
G01X929998Y403969D02*
G01X946148Y420119D01*
G01X947546Y420119D01*
G01X929998Y376069D02*
G01X946148Y359919D01*
G01X947546Y359919D01*
G01X836064Y403969D02*
G01X929998Y403969D01*
G01X836064Y376069D02*
G01X929998Y376069D01*
G01X616689Y315336D02*
G01X593140Y291787D01*
G01X616689Y240337D02*
G01X593140Y263886D01*
G01X425271Y310271D02*
G01X423220Y312322D01*
G01X444999Y329999D02*
G01X442948Y332050D01*
G01X-164728Y415271D02*
G01X-166662Y417204D01*
G01X-145000Y434999D02*
G01X-146933Y436933D01*
G01X266834Y377099D02*
G01X-72573Y377099D01*
G01X266834Y404999D02*
G01X-72573Y404999D01*
G01X593140Y263886D02*
G01X537253Y263886D01*
G01X593140Y291787D02*
G01X537253Y291787D01*
G01X-434999Y-16176D02*
G01X-451175Y0D01*
G01X-391162Y0D02*
G01X-407099Y-15937D01*
G01X-451294Y130278D02*
G01X-435237Y146334D01*
G01X-391281Y130278D02*
G01X-407337Y146334D01*
G01X-435237Y146334D02*
G01X-435237Y167743D01*
G01X-407337Y146334D02*
G01X-407337Y167743D01*
G01X-420052Y204403D02*
G01X-418164Y206292D01*
G01X-400324Y184675D02*
G01X-398436Y186563D01*
G01X-385070Y220000D02*
G01X-382369Y220000D01*
G01X-385070Y192099D02*
G01X-382369Y192099D01*
G01X-335646Y200647D02*
G01X-333675Y198675D01*
G01X-355375Y180918D02*
G01X-353403Y178947D01*
G01X85000Y324999D02*
G01X256360Y324999D01*
G01X85000Y297099D02*
G01X256360Y297099D01*
G01X364999Y279999D02*
G01X463179Y181820D01*
G01X345271Y260271D02*
G01X443451Y162091D01*
G01X539999Y150000D02*
G01X622217Y150000D01*
G01X539999Y122100D02*
G01X622217Y122100D01*
G01X754998Y95000D02*
G01X756932Y93066D01*
G01X735270Y75271D02*
G01X737204Y73338D01*
G01X-264446Y170000D02*
G01X-197308Y170000D01*
G01X-264446Y142100D02*
G01X-197308Y142100D01*
G01X-90941Y214059D02*
G01X-25962Y279038D01*
G01X-71213Y194330D02*
G01X-6233Y259309D01*
G01X809998Y-35047D02*
G01X809998Y-252573D01*
G01X782098Y-35047D02*
G01X782098Y-252573D01*
G01X-874998Y-369993D02*
G01X-858942Y-386049D01*
G01X-858942Y-413949D02*
G01X-874998Y-430006D01*
G01X-599999Y-429999D02*
G01X-598060Y-431938D01*
G01X-617789Y-451666D02*
G01X-619727Y-449728D01*
G01X-530314Y-459999D02*
G01X-512164Y-459999D01*
G01X-512164Y-487899D02*
G01X-530314Y-487899D01*
G01X-482862Y-447862D02*
G01X-468144Y-433144D01*
G01X-448416Y-452872D02*
G01X-463133Y-467590D01*
G01X-858942Y-386049D02*
G01X-706103Y-386049D01*
G01X-706103Y-413949D02*
G01X-858942Y-413949D01*
G01X-434999Y-353125D02*
G01X-434999Y-16176D01*
G01X-407099Y-15937D02*
G01X-407099Y-353125D01*
G01X839998Y-324999D02*
G01X847141Y-332142D01*
G01X820270Y-344728D02*
G01X827413Y-351871D01*
G01X921343Y-366997D02*
G01X932900Y-366997D01*
G01X949998Y-349899D01*
G01X923484Y-395142D02*
G01X935040Y-395142D01*
G01X949998Y-410100D01*
G01X-275047Y462099D02*
G01X-277974Y462099D01*
G01X-275047Y489999D02*
G01X-277974Y489999D01*
G01X-338523Y437018D02*
G01X-352322Y423220D01*
G01X-358252Y456747D02*
G01X-372050Y442948D01*
G01X-377099Y363402D02*
G01X-377099Y360436D01*
G01X-404999Y363402D02*
G01X-404999Y360436D01*
G01X-346071Y285528D02*
G01X-338416Y277873D01*
G01X-365799Y265800D02*
G01X-358145Y258145D01*
G01X-307618Y274910D02*
G01X-302515Y280014D01*
G01X-300015Y286049D02*
G01X-300015Y297515D01*
G01X-304398Y308096D02*
G01X-318561Y322260D01*
G01X-287890Y255182D02*
G01X-282786Y260285D01*
G01X-269521Y306276D02*
G01X-253537Y322260D01*
G01X-272115Y286049D02*
G01X-272115Y300015D01*
G01X-346735Y586089D02*
G01X-345644Y584999D01*
G01X-308569Y584999D01*
G01X-774562Y261206D02*
G01X-766291Y261206D01*
G01X-692499Y334999D01*
G01X256060Y-421717D02*
G01X318707Y-421717D01*
G01X339398Y-401027D01*
G01X256060Y-116718D02*
G01X318707Y-116718D01*
G01X339398Y-96027D01*
G01X339398Y-191023D02*
G01X419999Y-191023D01*
G01X339398Y-496023D02*
G01X388976Y-496023D01*
G01X419999Y-464999D01*
G01X419999Y-456241D01*
G01X101439Y-595780D02*
G01X178144Y-595780D01*
G01X1234998Y0D02*
G01X1396151Y0D01*
G54D31*
G01X1212571Y-254000D02*
G01X1387501Y-254000D01*
G01X1215071Y-508000D02*
G01X1387501Y-508000D01*
G01X694997Y-294378D02*
G01X621053Y-294378D01*
G01X609400Y-306031D01*
G01X575431Y-339999D01*
G01X514999Y-339999D01*
G01X692533Y10620D02*
G01X621051Y10620D01*
G01X609400Y-1031D01*
G01X598369Y10000D01*
G01X514999Y10000D01*
G01X-600448Y-178093D02*
G01X-600448Y-209550D01*
G01X-599999Y-210000D01*
G01X339398Y-1031D02*
G01X261321Y-1031D01*
G01X255001Y-7352D01*
G01X-909998Y250000D02*
G01X-800003Y359994D01*
G01X-762958Y359994D01*
G01X-904998Y439999D02*
G01X-762963Y439999D01*
G01X-657040Y399999D02*
G01X-634999Y377958D01*
G01X-634999Y369999D01*
G01X-915045Y-225011D02*
G01X-868127Y-178093D01*
G01X-739645Y-178093D02*
G01X-739645Y-266806D01*
G01X-868127Y-178093D02*
G01X-739645Y-178093D01*
G01X-700448Y-178093D02*
G01X-739645Y-178093D01*
G54D32*
G01X101439Y-509217D02*
G01X101439Y-469999D01*
G01X-546400Y611400D02*
G01X-519999Y584999D01*
G01X-644255Y611400D02*
G01X-546400Y611400D01*
G01X-666717Y588938D02*
G01X-644255Y611400D01*
G54D30*
G01X-215000Y-120430D02*
G01X-215000Y-162499D01*
G01X-223980Y-111449D02*
G01X-215000Y-120430D01*
G54D31*
G01X-175000Y-97500D02*
G01X-108661Y-97500D01*
G01X-108125Y-96964D01*
G01X-108125Y-57506D02*
G01X-108125Y-96964D01*
G01X-108125Y-135010D01*
G01X-21562Y-135010D02*
G01X-21562Y-57506D01*
G01X-21562Y-15345D01*
G01X-6857Y-641D01*
G01X489999Y-269999D02*
G01X449999Y-309999D01*
G01X489999Y-190000D02*
G01X489999Y-269999D01*
G54D30*
G01X449999Y-369999D02*
G01X429999Y-389999D01*
G01X407499Y-389999D01*
G01X449999Y-309999D02*
G01X449999Y-369999D01*
G54D31*
G01X449999Y-309999D02*
G01X343367Y-309999D01*
G01X339398Y-306031D01*
G54D32*
G01X-25000Y55000D02*
G01X-40858Y70858D01*
G01X-37322Y147677D02*
G01X-30000Y155000D01*
G01X-5858Y165000D02*
G01X0Y165000D01*
G01X67500Y-552499D02*
G01X111287Y-552499D01*
G54D30*
G01X839141Y-439999D02*
G01X844998Y-439999D01*
G01X879140Y-454141D02*
G01X902498Y-477499D01*
G01X-532042Y-618650D02*
G01X-484999Y-618650D01*
G01X-375857Y534999D02*
G01X-319999Y534999D01*
G01X-277322Y552677D02*
G01X-264999Y564999D01*
G01X-932546Y-447522D02*
G01X-880118Y-499949D01*
G01X834141Y449999D02*
G01X839998Y449999D01*
G01X874140Y464141D02*
G01X902498Y492499D01*
G01X-652322Y13950D02*
G03X-590400Y39599I0J87570D01*
G01X-652322Y-13950D02*
G03X-570671Y19870I0J115471D01*
G01X-588021Y41978D02*
G02X-498765Y78949I89256J-89256D01*
G01X-568292Y22249D02*
G02X-498765Y51049I69527J-69527D01*
G01X-708214Y-20101D02*
G02X-693365Y-13950I14849J-14849D01*
G01X-242260Y51049D02*
G02X-227411Y44898I-0J-21000D01*
G01X-710134Y20101D02*
G03X-695285Y13950I14849J14849D01*
G01X-242260Y78949D02*
G03X-227411Y85099I0J21000D01*
G01X-587509Y165793D02*
G02X-609340Y143962I-21831J-0D01*
G01X-559609Y165793D02*
G02X-609340Y116062I-49731J0D01*
G01X-534608Y473943D02*
G02X-479999Y419333I-0J-54609D01*
G01X-507899Y419333D02*
G03X-534608Y446043I-26709J0D01*
G01X-479999Y413744D02*
G02X-531644Y362099I-51645J0D01*
G01X-531644Y389999D02*
G03X-507899Y413744I0J23745D01*
G01X-531644Y362099D02*
G03X-557527Y336216I0J-25883D01*
G01X-587529Y334115D02*
G02X-531644Y389999I55885J0D01*
G01X-292036Y-121493D02*
G02X-267787Y-111449I24249J-24249D01*
G01X-311765Y-101765D02*
G02X-267787Y-83549I43977J-43977D01*
G01X-302099Y-143068D02*
G02X-293960Y-123417I27791J0D01*
G01X-329999Y-143068D02*
G02X-313688Y-103688I55691J0D01*
G01X-287534Y-223036D02*
G02X-302099Y-187873I35163J35163D01*
G01X-307263Y-242764D02*
G02X-329999Y-187873I54891J54891D01*
G01X-198412Y-277115D02*
G02X-258234Y-252336I-0J84601D01*
G01X-198412Y-305015D02*
G02X-277963Y-272064I0J112501D01*
G01X10000Y-337516D02*
G03X-68465Y-305015I-78466J-78466D01*
G01X29729Y-317788D02*
G03X-68465Y-277115I-98194J-98194D01*
G01X40002Y-397519D02*
G03X18788Y-346304I-72430J0D01*
G01X67902Y-397519D02*
G03X38516Y-326575I-100330J0D01*
G01X39729Y-469750D02*
G03X67902Y-401735I-68015J68015D01*
G01X20001Y-450022D02*
G03X40002Y-401735I-48287J48287D01*
G01X-7323Y-490423D02*
G03X37711Y-471769I0J63687D01*
G01X-7323Y-462523D02*
G03X17982Y-452041I0J35787D01*
G01X1449700Y508000D02*
G03X1296060Y444360I-0J-217280D01*
G01X1287920Y436220D02*
G02X1210059Y403969I-77861J77861D01*
G01X1449700Y254000D02*
G02X1296060Y317640I-0J217280D01*
G01X1257127Y356573D02*
G03X1210059Y376069I-47068J-47068D01*
G01X1188577Y376069D02*
G03X1029726Y310271I0J-224649D01*
G01X1027765Y308309D02*
G02X922276Y264614I-105489J105489D01*
G01X1188577Y403969D02*
G03X1009998Y329999I0J-252549D01*
G01X1008036Y328037D02*
G02X922276Y292514I-85761J85761D01*
G01X621764Y466073D02*
G02X720270Y425271I-0J-139309D01*
G01X621764Y493974D02*
G02X739999Y444999I0J-167209D01*
G01X742113Y442885D02*
G03X836064Y403969I93951J93951D01*
G01X722384Y423157D02*
G03X836064Y376069I113679J113679D01*
G01X537253Y291787D02*
G02X444999Y329999I-0J130467D01*
G01X537253Y263886D02*
G02X425271Y310271I-0J158367D01*
G01X423220Y312322D02*
G03X266834Y377099I-156386J-156386D01*
G01X442948Y332050D02*
G03X266834Y404999I-176115J-176115D01*
G01X-72573Y404999D02*
G02X-145000Y434999I0J102426D01*
G01X-72573Y377099D02*
G02X-164728Y415271I-0J130326D01*
G01X-166662Y417204D02*
G03X-275047Y462099I-108385J-108385D01*
G01X-146933Y436933D02*
G03X-275047Y489999I-128113J-128113D01*
G01X-435237Y167743D02*
G02X-420052Y204403I51845J0D01*
G01X-407337Y167743D02*
G02X-400324Y184675I23945J0D01*
G01X-418164Y206292D02*
G02X-385070Y220000I33094J-33094D01*
G01X-398436Y186563D02*
G02X-385070Y192099I13366J-13365D01*
G01X-382369Y220000D02*
G02X-335646Y200647I0J-66075D01*
G01X-382369Y192099D02*
G02X-355375Y180918I-0J-38175D01*
G01X-333675Y198675D02*
G03X-264446Y170000I69229J69229D01*
G01X-353403Y178947D02*
G03X-264446Y142100I88958J88957D01*
G01X-197308Y170000D02*
G03X-90941Y214059I0J150426D01*
G01X-197308Y142100D02*
G03X-71213Y194330I0J178326D01*
G01X-25962Y279038D02*
G02X85000Y324999I110962J-110962D01*
G01X-6233Y259309D02*
G02X85000Y297099I91233J-91233D01*
G01X256360Y297099D02*
G02X345271Y260271I-0J-125739D01*
G01X256360Y324999D02*
G02X364999Y279999I0J-153639D01*
G01X443451Y162091D02*
G03X539999Y122100I96548J96548D01*
G01X463179Y181820D02*
G03X539999Y150000I76820J76820D01*
G01X622217Y122100D02*
G02X735270Y75271I0J-159881D01*
G01X622217Y150000D02*
G02X754998Y95000I0J-187781D01*
G01X756932Y93066D02*
G02X809998Y-35047I-128113J-128113D01*
G01X737204Y73338D02*
G02X782098Y-35047I-108385J-108385D01*
G01X809998Y-252573D02*
G03X839998Y-324999I102426J0D01*
G01X782098Y-252573D02*
G03X820270Y-344728I130326J-0D01*
G01X-706103Y-386049D02*
G02X-599999Y-429999I-0J-150055D01*
G01X-619727Y-449728D02*
G03X-706103Y-413949I-86377J-86376D01*
G01X-598060Y-431938D02*
G03X-530314Y-459999I67746J67746D01*
G01X-530314Y-487899D02*
G02X-617789Y-451666I0J123708D01*
G01X-512164Y-459999D02*
G03X-482862Y-447862I0J41440D01*
G01X-463133Y-467590D02*
G02X-512164Y-487899I-49031J49031D01*
G01X-468144Y-433144D02*
G03X-434999Y-353125I-80019J80019D01*
G01X-407099Y-353125D02*
G02X-448416Y-452872I-141064J0D01*
G01X847141Y-332142D02*
G03X921343Y-366997I85404J85404D01*
G01X827413Y-351871D02*
G03X923484Y-395142I105133J105133D01*
G01X-277974Y462099D02*
G03X-338523Y437018I0J-85630D01*
G01X-277974Y489999D02*
G03X-358252Y456747I0J-113530D01*
G01X-352322Y423220D02*
G03X-377099Y363402I59818J-59818D01*
G01X-372050Y442948D02*
G03X-404999Y363402I79546J-79546D01*
G01X-377099Y360436D02*
G03X-346071Y285528I105936J0D01*
G01X-404999Y360436D02*
G03X-365799Y265800I133836J0D01*
G01X-338416Y277873D02*
G03X-319440Y270013I18976J18976D01*
G03X-307618Y274910I0J16719D01*
G01X-302515Y280014D02*
G03X-300015Y286049I-6036J6036D01*
G01X-300015Y297515D02*
G03X-304398Y308096I-14965J0D01*
G01X-358145Y258145D02*
G03X-319440Y242113I38705J38705D01*
G03X-293518Y250416I-0J44619D01*
G03X-287890Y255182I-25922J36317D01*
G01X-282786Y260285D02*
G03X-272115Y286049I-25764J25764D01*
G01X-272115Y300015D02*
G02X-269521Y306276I8855J0D01*
G54D32*
G01X-40858Y70858D02*
G02X-55000Y105000I34142J34142D01*
G02X-37322Y147677I60355J0D01*
G01X-30000Y155000D02*
G02X-5858Y165000I24142J-24142D01*
G54D30*
G01X111287Y-552499D02*
G03X147500Y-537499I0J51213D01*
G01X814998Y-449999D02*
G02X839141Y-439999I24142J-24142D01*
G01X844998Y-439999D02*
G02X879140Y-454141I0J-48284D01*
G01X-564999Y-604999D02*
G03X-532042Y-618650I32957J32957D01*
G01X-399999Y544999D02*
G03X-375857Y534999I24142J24142D01*
G01X-319999Y534999D02*
G03X-277322Y552677I0J60355D01*
G01X809998Y459999D02*
G03X834141Y449999I24142J24142D01*
G01X839998Y449999D02*
G03X874140Y464141I0J48284D01*
G04 Track End*

M02*

