G04 Layer: InnerLayer2*
G04 EasyEDA Pro v2.2.20.32, 2024-06-04 01:45:36*
G04 Gerber Generator version 0.3*
G04 Scale: 100 percent, Rotated: No, Reflected: No*
G04 Dimensions in millimeters*
G04 Leading zeros omitted, absolute positions, 3 integers and 5 decimals*
%FSLAX35Y35*%
%MOMM*%
%ADD8191C,0.2032*%
%ADD10O,2.59999X1.1*%
%ADD11O,2.4X1.1*%
%ADD12C,0.4*%
%ADD13C,0.374*%
%ADD14C,0.4526*%
%ADD15C,0.45*%
%ADD16C,0.127*%
%ADD17C,0.3*%
G75*


G04 Copper Start*
G36*
G01X-1578226Y-520000D02*
G01X-1578226Y-503314D01*
G01X-1042160Y-503314D01*
G03X-1006346Y-467500I0J35814D01*
G01X-1006346Y-192301D01*
G03X-1000131Y-200190I36348J22244D01*
G01X-963825Y-236496D01*
G03X-914081Y-275116I48780J11485D01*
G03X-825847Y-296282I49082J10116D01*
G03X-865962Y-214895I-39151J31283D01*
G03X-903560Y-176231I-49082J-10116D01*
G01X-927384Y-152406D01*
G01X-927384Y-104482D01*
G03X-856053Y-108380I37383J29489D01*
G03X-861138Y-37124I-33947J33387D01*
G01X-850734Y-26720D01*
G03X-840786Y-2704I-24016J24016D01*
G01X-840786Y59743D01*
G03X-842521Y70459I-33964J0D01*
G01X-842495Y71791D01*
G03X-869306Y117888I-47505J3215D01*
G03X-927384Y170070I-45694J7554D01*
G01X-927384Y172348D01*
G01X-898513Y201219D01*
G03X-874562Y285436I-11485J48780D01*
G03X-958779Y261485I-35436J-35436D01*
G01X-1000131Y220132D01*
G03X-1006346Y212243I30133J-30133D01*
G01X-1006346Y467500D01*
G03X-1042160Y503314I-35814J0D01*
G01X-1578226Y503314D01*
G01X-1578226Y520000D01*
G02X-1484040Y614186I94186J0D01*
G01X-560736Y614186D01*
G03X-566230Y604340I40737J-29187D01*
G03X-618687Y579551I-8768J-49341D01*
G03X-612587Y521855I43688J-24552D01*
G03X-624001Y491174I38687J-31855D01*
G03X-614038Y459993I50100J-1175D01*
G03X-598780Y386484I40138J-30007D01*
G01X-642925Y342338D01*
G03X-727935Y370435I-49574J-7340D01*
G03X-699839Y285425I35436J-35436D01*
G01X-715131Y270132D01*
G03X-727613Y240000I30133J-30133D01*
G01X-727613Y-210000D01*
G03X-715131Y-240132I42614J0D01*
G01X-670244Y-285020D01*
G03X-694657Y-353601I20245J-45843D01*
G03X-624836Y-374202I44659J22738D01*
G03X-533150Y-407478I49778J-5797D01*
G03X-600221Y-336660I-41909J27479D01*
G03X-603325Y-312614I-49778J5797D01*
G01X-467650Y-312614D01*
G01X-432814Y-347450D01*
G01X-432814Y-575000D01*
G03X-420333Y-605133I42614J0D01*
G01X-411279Y-614186D01*
G01X-497185Y-614186D01*
G03X-477259Y-557256I-27814J41687D01*
G03X-526489Y-522407I-47740J-15243D01*
G03X-615085Y-504911I-48510J-12579D01*
G03X-573509Y-585078I40086J-30075D01*
G03X-552813Y-614186I48510J12579D01*
G01X-1484040Y-614186D01*
G02X-1578226Y-520000I0J94186D01*
G37*
%LPC*%
G36*
G01X-927612Y368939D02*
G03X-827384Y368939I50114J0D01*
G03X-927612Y368939I-50114J0D01*
G37*
G36*
G01X-874998Y-480120D02*
G03X-834860Y-399999I0J50114D01*
G03X-874998Y-319878I-40138J30007D01*
G03X-915136Y-399999I0J-50114D01*
G03X-874998Y-480120I40138J-30007D01*
G37*
%LPD*%
G36*
G01X-477385Y558627D02*
G03X-479261Y614186I-42614J26372D01*
G01X-349307Y614186D01*
G03X-308569Y534885I40737J-29187D01*
G03X-267832Y614186I0J50114D01*
G01X1505960Y614186D01*
G02X1600146Y520000I0J-94186D01*
G01X1600146Y-520000D01*
G02X1505960Y-614186I-94186J0D01*
G01X186295Y-614186D01*
G03X140000Y-544885I-46296J19187D01*
G03X93704Y-614186I0J-50114D01*
G01X-259262Y-614186D01*
G03X-252524Y-568950I-40737J29187D01*
G01X-114987Y-568950D01*
G03X-90971Y-559002I0J33964D01*
G01X-69439Y-537471D01*
G03X2532Y-550153I41937J27435D01*
G03X10635Y-477523I-30034J40117D01*
G03X22612Y-445095I-38137J32512D01*
G03X10743Y-412626I-50114J83D01*
G03X19244Y-353963I-35742J35127D01*
G01X58825Y-353963D01*
G01X58825Y-443627D01*
G03X101439Y-520113I42614J-26372D01*
G03X144053Y-443627I0J50114D01*
G01X144053Y-366211D01*
G01X153816Y-356448D01*
G03X201370Y-353645I21182J45417D01*
G01X364885Y-353645D01*
G01X364885Y-363627D01*
G03X377306Y-429997I42614J-26372D01*
G03X412756Y-505829I42693J-26244D01*
G03X468415Y-443304I7243J49588D01*
G03X494999Y-452613I26584J33305D01*
G01X664847Y-452613D01*
G01X812365Y-600132D01*
G03X842498Y-612613I30133J30133D01*
G01X1153072Y-612613D01*
G03X1183205Y-600132I0J42614D01*
G01X1226556Y-556780D01*
G03X1263403Y-494754I-11485J48780D01*
G03X1200082Y-460180I-48332J-13246D01*
G01X1242704Y-417558D01*
G03X1255185Y-387426I-30133J30133D01*
G01X1255185Y-280372D01*
G03X1212571Y-203886I-42614J26372D01*
G03X1169957Y-280372I0J-50114D01*
G01X1169957Y-369774D01*
G01X1112346Y-427385D01*
G01X997037Y-427385D01*
G03X990066Y-379999I-47039J17285D01*
G03X949998Y-299785I-40068J30100D01*
G03X909931Y-379999I0J-50114D01*
G03X904454Y-389190I40068J-30100D01*
G01X825131Y-309867D01*
G03X794998Y-297385I-30133J-30133D01*
G01X541371Y-297385D01*
G03X532298Y-292966I-26372J-42614D01*
G01X595132Y-230132D01*
G03X607613Y-200000I-30133J30133D01*
G01X607613Y-40000D01*
G03X595132Y-9867I-42614J0D01*
G01X564229Y21036D01*
G01X680930Y21036D01*
G01X703535Y-1569D01*
G01X703535Y-100650D01*
G03X737499Y-187614I33964J-36849D01*
G03X771463Y-100650I0J50114D01*
G01X771463Y12500D01*
G03X761515Y36516I-33964J0D01*
G01X719015Y79016D01*
G03X694999Y88964I-24016J-24016D01*
G01X479999Y88964D01*
G03X455983Y79016I0J-33964D01*
G01X430983Y54016D01*
G01X429856Y52834D01*
G03X430112Y57498I-42358J4665D01*
G01X430112Y72219D01*
G03X462792Y135076I-15113J47781D01*
G03X399959Y167804I-47793J-15076D01*
G01X388778Y178985D01*
G03X304562Y202936I-48780J-11485D01*
G03X328513Y118719I35436J-35436D01*
G01X344884Y102348D01*
G01X344884Y75150D01*
G01X319867Y50133D01*
G03X307385Y20000I30133J-30133D01*
G01X307385Y-90000D01*
G03X319867Y-120133I42614J0D01*
G01X329734Y-130000D01*
G01X287348Y-172385D01*
G01X150232Y-172385D01*
G01X266486Y-56132D01*
G03X290437Y28084I-11485J48780D01*
G03X206220Y4133I-35436J-35436D01*
G01X84702Y-117386D01*
G01X42651Y-117386D01*
G01X10133Y-84867D01*
G03X-20000Y-72386I-30133J-30133D01*
G01X-80000Y-72386D01*
G03X-110133Y-84867I0J-42614D01*
G01X-124932Y-99667D01*
G03X-167335Y-47976I-50067J2166D01*
G03X-176847Y-6I-47665J15477D01*
G03X-176863Y64999I-38153J32493D01*
G03X-215000Y147625I-38137J32512D01*
G03X-253136Y64999I0J-50114D01*
G03X-253152Y-6I38137J-32512D01*
G03X-259835Y-54886I38153J-32493D01*
G01X-272500Y-54886D01*
G03X-302633Y-67368I0J-42614D01*
G01X-342651Y-107386D01*
G01X-573261Y-107386D01*
G03X-564563Y-29564I-26737J42386D01*
G03X-642385Y-38263I-35436J-35436D01*
G01X-642385Y49525D01*
G03X-585956Y70078I14483J47976D01*
G03X-589765Y130012I-41946J27422D01*
G03X-585956Y189947I-38137J32512D01*
G03X-642385Y210500I-41946J-27422D01*
G01X-642385Y222348D01*
G01X-489866Y374866D01*
G03X-477385Y404999I-30133J30133D01*
G01X-477385Y558627D01*
G37*
%LPC*%
G36*
G01X-515113Y259999D02*
G03X-414885Y259999I50114J0D01*
G03X-515113Y259999I-50114J0D01*
G37*
G36*
G01X-501408Y130278D02*
G03X-421287Y90140I50114J0D01*
G03X-341167Y130278I30007J40138D01*
G03X-421287Y170415I-50114J0D01*
G03X-501408Y130278I-30007J-40138D01*
G37*
G36*
G01X-501289Y0D02*
G03X-421168Y-40138I50114J0D01*
G03X-341048Y0I30007J40138D01*
G03X-421168Y40138I-50114J0D01*
G03X-501289Y0I-30007J-40138D01*
G37*
G36*
G01X-358790Y292375D02*
G03X-286049Y284123I40229J29885D01*
G03X-206872Y303989I32512J38137D01*
G03X-251512Y372333I-46665J18271D01*
G03X-304206Y434937I-48487J12666D01*
G03X-345684Y364400I4207J-49937D01*
G03X-358790Y292375I27123J-42140D01*
G37*
G36*
G01X-15001Y399903D02*
G03X25136Y480023I0J50114D01*
G03X-15001Y560144I-40138J30007D01*
G03X-55139Y480023I0J-50114D01*
G03X-15001Y399903I40138J-30007D01*
G37*
G36*
G01X-56971Y106857D02*
G03X43257Y106857I50114J0D01*
G03X-56971Y106857I-50114J0D01*
G37*
G36*
G01X24886Y234950D02*
G03X125114Y234950I50114J0D01*
G03X24886Y234950I-50114J0D01*
G37*
G36*
G01X484885Y217500D02*
G03X585114Y217500I50114J0D01*
G03X484885Y217500I-50114J0D01*
G37*
G36*
G01X685521Y-238584D02*
G03X785750Y-238584I50114J0D01*
G03X685521Y-238584I-50114J0D01*
G37*
G36*
G01X687383Y167500D02*
G03X787612Y167500I50114J0D01*
G03X687383Y167500I-50114J0D01*
G37*
G36*
G01X794531Y497552D02*
G03X894759Y497552I50114J0D01*
G03X794531Y497552I-50114J0D01*
G37*
G36*
G01X795232Y219999D02*
G03X895460Y219999I50114J0D01*
G03X795232Y219999I-50114J0D01*
G37*
G36*
G01X819884Y-282500D02*
G03X920112Y-282500I50114J0D01*
G03X819884Y-282500I-50114J0D01*
G37*
G36*
G01X947546Y309805D02*
G03X987614Y390019I0J50114D01*
G03X947546Y470234I-40068J30100D01*
G03X907479Y390019I0J-50114D01*
G03X947546Y309805I40068J-30100D01*
G37*
G36*
G01X1184883Y0D02*
G03X1285112Y0I50114J0D01*
G03X1184883Y0I-50114J0D01*
G37*
%LPD*%
G36*
G01X-407119Y-252614D02*
G01X-337651Y-252614D01*
G01X-287879Y-302385D01*
G01X-357348Y-302385D01*
G01X-360067Y-299666D01*
G01X-407119Y-252614D01*
G37*
G36*
G01X417631Y27366D02*
G03X421057Y31236I-30133J30133D01*
G01X421035Y30000D01*
G01X421035Y-20559D01*
G03X430983Y-44575I33964J0D01*
G01X434926Y-48519D01*
G03X451011Y-87386I50073J-2040D01*
G01X407651Y-87386D01*
G01X392613Y-72348D01*
G01X392613Y2349D01*
G01X417631Y27366D01*
G37*
G54D8191*
G01X-1578226Y-520000D02*
G01X-1578226Y-503314D01*
G01X-1042160Y-503314D01*
G03X-1006346Y-467500I0J35814D01*
G01X-1006346Y-192301D01*
G03X-1000131Y-200190I36348J22244D01*
G01X-963825Y-236496D01*
G03X-914081Y-275116I48780J11485D01*
G03X-825847Y-296282I49082J10116D01*
G03X-865962Y-214895I-39151J31283D01*
G03X-903560Y-176231I-49082J-10116D01*
G01X-927384Y-152406D01*
G01X-927384Y-104482D01*
G03X-856053Y-108380I37383J29489D01*
G03X-861138Y-37124I-33947J33387D01*
G01X-850734Y-26720D01*
G03X-840786Y-2704I-24016J24016D01*
G01X-840786Y59743D01*
G03X-842521Y70459I-33964J0D01*
G01X-842495Y71791D01*
G03X-869306Y117888I-47505J3215D01*
G03X-927384Y170070I-45694J7554D01*
G01X-927384Y172348D01*
G01X-898513Y201219D01*
G03X-874562Y285436I-11485J48780D01*
G03X-958779Y261485I-35436J-35436D01*
G01X-1000131Y220132D01*
G03X-1006346Y212243I30133J-30133D01*
G01X-1006346Y467500D01*
G03X-1042160Y503314I-35814J0D01*
G01X-1578226Y503314D01*
G01X-1578226Y520000D01*
G02X-1484040Y614186I94186J0D01*
G01X-560736Y614186D01*
G03X-566230Y604340I40737J-29187D01*
G03X-618687Y579551I-8768J-49341D01*
G03X-612587Y521855I43688J-24552D01*
G03X-624001Y491174I38687J-31855D01*
G03X-614038Y459993I50100J-1175D01*
G03X-598780Y386484I40138J-30007D01*
G01X-642925Y342338D01*
G03X-727935Y370435I-49574J-7340D01*
G03X-699839Y285425I35436J-35436D01*
G01X-715131Y270132D01*
G03X-727613Y240000I30133J-30133D01*
G01X-727613Y-210000D01*
G03X-715131Y-240132I42614J0D01*
G01X-670244Y-285020D01*
G03X-694657Y-353601I20245J-45843D01*
G03X-624836Y-374202I44659J22738D01*
G03X-533150Y-407478I49778J-5797D01*
G03X-600221Y-336660I-41909J27479D01*
G03X-603325Y-312614I-49778J5797D01*
G01X-467650Y-312614D01*
G01X-432814Y-347450D01*
G01X-432814Y-575000D01*
G03X-420333Y-605133I42614J0D01*
G01X-411279Y-614186D01*
G01X-497185Y-614186D01*
G03X-477259Y-557256I-27814J41687D01*
G03X-526489Y-522407I-47740J-15243D01*
G03X-615085Y-504911I-48510J-12579D01*
G03X-573509Y-585078I40086J-30075D01*
G03X-552813Y-614186I48510J12579D01*
G01X-1484040Y-614186D01*
G02X-1578226Y-520000I0J94186D01*
G01X-927612Y368939D02*
G03X-827384Y368939I50114J0D01*
G03X-927612Y368939I-50114J0D01*
G01X-874998Y-480120D02*
G03X-834860Y-399999I0J50114D01*
G03X-874998Y-319878I-40138J30007D01*
G03X-915136Y-399999I0J-50114D01*
G03X-874998Y-480120I40138J-30007D01*
G01X-477385Y558627D02*
G03X-479261Y614186I-42614J26372D01*
G01X-349307Y614186D01*
G03X-308569Y534885I40737J-29187D01*
G03X-267832Y614186I0J50114D01*
G01X1505960Y614186D01*
G02X1600146Y520000I0J-94186D01*
G01X1600146Y-520000D01*
G02X1505960Y-614186I-94186J0D01*
G01X186295Y-614186D01*
G03X140000Y-544885I-46296J19187D01*
G03X93704Y-614186I0J-50114D01*
G01X-259262Y-614186D01*
G03X-252524Y-568950I-40737J29187D01*
G01X-114987Y-568950D01*
G03X-90971Y-559002I0J33964D01*
G01X-69439Y-537471D01*
G03X2532Y-550153I41937J27435D01*
G03X10635Y-477523I-30034J40117D01*
G03X22612Y-445095I-38137J32512D01*
G03X10743Y-412626I-50114J83D01*
G03X19244Y-353963I-35742J35127D01*
G01X58825Y-353963D01*
G01X58825Y-443627D01*
G03X101439Y-520113I42614J-26372D01*
G03X144053Y-443627I0J50114D01*
G01X144053Y-366211D01*
G01X153816Y-356448D01*
G03X201370Y-353645I21182J45417D01*
G01X364885Y-353645D01*
G01X364885Y-363627D01*
G03X377306Y-429997I42614J-26372D01*
G03X412756Y-505829I42693J-26244D01*
G03X468415Y-443304I7243J49588D01*
G03X494999Y-452613I26584J33305D01*
G01X664847Y-452613D01*
G01X812365Y-600132D01*
G03X842498Y-612613I30133J30133D01*
G01X1153072Y-612613D01*
G03X1183205Y-600132I0J42614D01*
G01X1226556Y-556780D01*
G03X1263403Y-494754I-11485J48780D01*
G03X1200082Y-460180I-48332J-13246D01*
G01X1242704Y-417558D01*
G03X1255185Y-387426I-30133J30133D01*
G01X1255185Y-280372D01*
G03X1212571Y-203886I-42614J26372D01*
G03X1169957Y-280372I0J-50114D01*
G01X1169957Y-369774D01*
G01X1112346Y-427385D01*
G01X997037Y-427385D01*
G03X990066Y-379999I-47039J17285D01*
G03X949998Y-299785I-40068J30100D01*
G03X909931Y-379999I0J-50114D01*
G03X904454Y-389190I40068J-30100D01*
G01X825131Y-309867D01*
G03X794998Y-297385I-30133J-30133D01*
G01X541371Y-297385D01*
G03X532298Y-292966I-26372J-42614D01*
G01X595132Y-230132D01*
G03X607613Y-200000I-30133J30133D01*
G01X607613Y-40000D01*
G03X595132Y-9867I-42614J0D01*
G01X564229Y21036D01*
G01X680930Y21036D01*
G01X703535Y-1569D01*
G01X703535Y-100650D01*
G03X737499Y-187614I33964J-36849D01*
G03X771463Y-100650I0J50114D01*
G01X771463Y12500D01*
G03X761515Y36516I-33964J0D01*
G01X719015Y79016D01*
G03X694999Y88964I-24016J-24016D01*
G01X479999Y88964D01*
G03X455983Y79016I0J-33964D01*
G01X430983Y54016D01*
G01X429856Y52834D01*
G03X430112Y57498I-42358J4665D01*
G01X430112Y72219D01*
G03X462792Y135076I-15113J47781D01*
G03X399959Y167804I-47793J-15076D01*
G01X388778Y178985D01*
G03X304562Y202936I-48780J-11485D01*
G03X328513Y118719I35436J-35436D01*
G01X344884Y102348D01*
G01X344884Y75150D01*
G01X319867Y50133D01*
G03X307385Y20000I30133J-30133D01*
G01X307385Y-90000D01*
G03X319867Y-120133I42614J0D01*
G01X329734Y-130000D01*
G01X287348Y-172385D01*
G01X150232Y-172385D01*
G01X266486Y-56132D01*
G03X290437Y28084I-11485J48780D01*
G03X206220Y4133I-35436J-35436D01*
G01X84702Y-117386D01*
G01X42651Y-117386D01*
G01X10133Y-84867D01*
G03X-20000Y-72386I-30133J-30133D01*
G01X-80000Y-72386D01*
G03X-110133Y-84867I0J-42614D01*
G01X-124932Y-99667D01*
G03X-167335Y-47976I-50067J2166D01*
G03X-176847Y-6I-47665J15477D01*
G03X-176863Y64999I-38153J32493D01*
G03X-215000Y147625I-38137J32512D01*
G03X-253136Y64999I0J-50114D01*
G03X-253152Y-6I38137J-32512D01*
G03X-259835Y-54886I38153J-32493D01*
G01X-272500Y-54886D01*
G03X-302633Y-67368I0J-42614D01*
G01X-342651Y-107386D01*
G01X-573261Y-107386D01*
G03X-564563Y-29564I-26737J42386D01*
G03X-642385Y-38263I-35436J-35436D01*
G01X-642385Y49525D01*
G03X-585956Y70078I14483J47976D01*
G03X-589765Y130012I-41946J27422D01*
G03X-585956Y189947I-38137J32512D01*
G03X-642385Y210500I-41946J-27422D01*
G01X-642385Y222348D01*
G01X-489866Y374866D01*
G03X-477385Y404999I-30133J30133D01*
G01X-477385Y558627D01*
G01X-515113Y259999D02*
G03X-414885Y259999I50114J0D01*
G03X-515113Y259999I-50114J0D01*
G01X-501408Y130278D02*
G03X-421287Y90140I50114J0D01*
G03X-341167Y130278I30007J40138D01*
G03X-421287Y170415I-50114J0D01*
G03X-501408Y130278I-30007J-40138D01*
G01X-501289Y0D02*
G03X-421168Y-40138I50114J0D01*
G03X-341048Y0I30007J40138D01*
G03X-421168Y40138I-50114J0D01*
G03X-501289Y0I-30007J-40138D01*
G01X-358790Y292375D02*
G03X-286049Y284123I40229J29885D01*
G03X-206872Y303989I32512J38137D01*
G03X-251512Y372333I-46665J18271D01*
G03X-304206Y434937I-48487J12666D01*
G03X-345684Y364400I4207J-49937D01*
G03X-358790Y292375I27123J-42140D01*
G01X-15001Y399903D02*
G03X25136Y480023I0J50114D01*
G03X-15001Y560144I-40138J30007D01*
G03X-55139Y480023I0J-50114D01*
G03X-15001Y399903I40138J-30007D01*
G01X-56971Y106857D02*
G03X43257Y106857I50114J0D01*
G03X-56971Y106857I-50114J0D01*
G01X24886Y234950D02*
G03X125114Y234950I50114J0D01*
G03X24886Y234950I-50114J0D01*
G01X484885Y217500D02*
G03X585114Y217500I50114J0D01*
G03X484885Y217500I-50114J0D01*
G01X685521Y-238584D02*
G03X785750Y-238584I50114J0D01*
G03X685521Y-238584I-50114J0D01*
G01X687383Y167500D02*
G03X787612Y167500I50114J0D01*
G03X687383Y167500I-50114J0D01*
G01X794531Y497552D02*
G03X894759Y497552I50114J0D01*
G03X794531Y497552I-50114J0D01*
G01X795232Y219999D02*
G03X895460Y219999I50114J0D01*
G03X795232Y219999I-50114J0D01*
G01X819884Y-282500D02*
G03X920112Y-282500I50114J0D01*
G03X819884Y-282500I-50114J0D01*
G01X947546Y309805D02*
G03X987614Y390019I0J50114D01*
G03X947546Y470234I-40068J30100D01*
G03X907479Y390019I0J-50114D01*
G03X947546Y309805I40068J-30100D01*
G01X1184883Y0D02*
G03X1285112Y0I50114J0D01*
G03X1184883Y0I-50114J0D01*
G01X-407119Y-252614D02*
G01X-337651Y-252614D01*
G01X-287879Y-302385D01*
G01X-357348Y-302385D01*
G01X-360067Y-299666D01*
G01X-407119Y-252614D01*
G01X417631Y27366D02*
G03X421057Y31236I-30133J30133D01*
G01X421035Y30000D01*
G01X421035Y-20559D01*
G03X430983Y-44575I33964J0D01*
G01X434926Y-48519D01*
G03X451011Y-87386I50073J-2040D01*
G01X407651Y-87386D01*
G01X392613Y-72348D01*
G01X392613Y2349D01*
G01X417631Y27366D01*
G04 Copper End*

G04 TearDrop Start*
G36*
G01X-870260Y64234D02*
G01X-879241Y55253D01*
G01X-891122Y55038D01*
G01X-870031Y76110D01*
G01X-870260Y64234D01*
G37*
G36*
G01X-888070Y-7043D02*
G01X-883294Y-20228D01*
G01X-902097Y-38528D01*
G01X-902826Y-10799D01*
G01X-895326Y-12103D01*
G01X-888070Y-7043D01*
G37*
G36*
G01X-504999Y554249D02*
G01X-534999Y554249D01*
G01X-534163Y562781D01*
G01X-536770Y569999D01*
G01X-503228Y569999D01*
G01X-505835Y562781D01*
G01X-504999Y554249D01*
G37*
G36*
G01X-306750Y-528636D02*
G01X-306750Y-541336D01*
G01X-315371Y-544593D01*
G01X-322500Y-551757D01*
G01X-322500Y-518216D01*
G01X-315371Y-525380D01*
G01X-306750Y-528636D01*
G37*
G36*
G01X389249Y-261349D02*
G01X389249Y-248649D01*
G01X397870Y-245393D01*
G01X404999Y-238229D01*
G01X404999Y-271770D01*
G01X397870Y-264606D01*
G01X389249Y-261349D01*
G37*
G36*
G01X1227571Y-284750D02*
G01X1197571Y-284750D01*
G01X1198407Y-276218D01*
G01X1195801Y-269000D01*
G01X1229342Y-269000D01*
G01X1226735Y-276218D01*
G01X1227571Y-284750D01*
G37*
G36*
G01X1203934Y-540350D02*
G01X1182721Y-519137D01*
G01X1189346Y-513695D01*
G01X1192606Y-506748D01*
G01X1216323Y-530465D01*
G01X1209377Y-533726D01*
G01X1203934Y-540350D01*
G37*
G36*
G01X545749Y-324999D02*
G01X545749Y-354999D01*
G01X537217Y-354163D01*
G01X529999Y-356770D01*
G01X529999Y-323229D01*
G01X537217Y-325835D01*
G01X545749Y-324999D01*
G37*
G36*
G01X547349Y-1137D02*
G01X526136Y-22350D01*
G01X520694Y-15726D01*
G01X513747Y-12465D01*
G01X537464Y11252D01*
G01X540725Y4305D01*
G01X547349Y-1137D01*
G37*
G36*
G01X-569249Y-195000D02*
G01X-569249Y-225000D01*
G01X-577781Y-224164D01*
G01X-584999Y-226770D01*
G01X-584999Y-193229D01*
G01X-577781Y-195836D01*
G01X-569249Y-195000D01*
G37*
G36*
G01X243863Y-39702D02*
G01X222650Y-18489D01*
G01X229275Y-13047D01*
G01X232535Y-6100D01*
G01X256252Y-29817D01*
G01X249306Y-33078D01*
G01X243863Y-39702D01*
G37*
G36*
G01X731149Y-106749D02*
G01X743849Y-106749D01*
G01X747105Y-115371D01*
G01X754269Y-122499D01*
G01X720728Y-122499D01*
G01X727892Y-115371D01*
G01X731149Y-106749D01*
G37*
G36*
G01X458765Y-33305D02*
G01X467746Y-24325D01*
G01X476144Y-28119D01*
G01X486251Y-28093D01*
G01X462534Y-51811D01*
G01X462559Y-41704D01*
G01X458765Y-33305D01*
G37*
G36*
G01X-947395Y-213874D02*
G01X-926182Y-192661D01*
G01X-920739Y-199285D01*
G01X-913793Y-202546D01*
G01X-937510Y-226263D01*
G01X-940770Y-219316D01*
G01X-947395Y-213874D01*
G37*
G36*
G01X-921135Y217649D02*
G01X-942348Y238862D01*
G01X-935724Y244305D01*
G01X-932463Y251251D01*
G01X-908746Y227534D01*
G01X-915693Y224274D01*
G01X-921135Y217649D01*
G37*
G36*
G01X86439Y-439249D02*
G01X116439Y-439249D01*
G01X115603Y-447781D01*
G01X118210Y-454999D01*
G01X84669Y-454999D01*
G01X87275Y-447781D01*
G01X86439Y-439249D01*
G37*
G36*
G01X144248Y-326031D02*
G01X144248Y-296031D01*
G01X152781Y-296867D01*
G01X159998Y-294260D01*
G01X159998Y-327801D01*
G01X152781Y-325195D01*
G01X144248Y-326031D01*
G37*
G36*
G01X205748Y-296031D02*
G01X205748Y-326031D01*
G01X197216Y-325195D01*
G01X189998Y-327801D01*
G01X189998Y-294260D01*
G01X197216Y-296867D01*
G01X205748Y-296031D01*
G37*
G36*
G01X372348Y156362D02*
G01X351135Y135149D01*
G01X345693Y141774D01*
G01X338746Y145034D01*
G01X362463Y168752D01*
G01X365724Y161805D01*
G01X372348Y156362D01*
G37*
G36*
G01X-205750Y-112500D02*
G01X-205750Y-82500D01*
G01X-197217Y-83336D01*
G01X-190000Y-80730D01*
G01X-190000Y-114271D01*
G01X-197217Y-111664D01*
G01X-205750Y-112500D01*
G37*
G36*
G01X392499Y-359249D02*
G01X422499Y-359249D01*
G01X421663Y-367782D01*
G01X424269Y-374999D01*
G01X390728Y-374999D01*
G01X393335Y-367782D01*
G01X392499Y-359249D01*
G37*
G36*
G01X408649Y-19250D02*
G01X421349Y-19250D01*
G01X424605Y-27871D01*
G01X431770Y-35000D01*
G01X398228Y-35000D01*
G01X405392Y-27871D01*
G01X408649Y-19250D01*
G37*
G36*
G01X-579999Y-135000D02*
G02X-669999Y-105000I0J150000D01*
G01X-684999Y-144430D01*
G01X-669999Y-195000D01*
G02X-579999Y-165000I90000J-120000D01*
G01X-579999Y-135000D01*
G37*
G04 TearDrop End*

G04 Pad Start*
G54D10*
G01X-1029155Y540004D03*
G54D11*
G01X-1352141Y540004D03*
G01X-1352167Y-540004D03*
G54D10*
G01X-1029155Y-540004D03*
G04 Pad End*

G04 Via Start*
G54D12*
G01X-890001Y75006D03*
G54D13*
G01X-915000Y24994D03*
G01X-915000Y-24994D03*
G54D12*
G01X-890001Y-74993D03*
G54D13*
G01X-915000Y125442D03*
G54D15*
G01X-794998Y623D03*
G01X-215000Y97511D03*
G01X-215000Y32487D03*
G01X-627902Y162524D03*
G01X-627902Y97500D03*
G01X-573900Y429986D03*
G01X-573900Y489999D03*
G01X-27502Y-445011D03*
G01X-27502Y-510035D03*
G01X-215000Y-32499D03*
G01X-215000Y-162499D03*
G01X-6857Y106857D03*
G01X75000Y234950D03*
G01X-6857Y-641D03*
G01X158139Y-641D03*
G01X73143Y-103141D03*
G01X115000Y170000D03*
G01X45000Y-45000D03*
G01X-299999Y384999D03*
G01X-15001Y510030D03*
G01X-15001Y450017D03*
G01X947546Y420119D03*
G01X947546Y359919D03*
G01X949998Y-349899D03*
G01X949998Y-410100D03*
G01X-318561Y322260D03*
G01X-253537Y322260D03*
G01X-574999Y-534986D03*
G01X-391162Y0D03*
G01X-451175Y0D03*
G01X-391281Y130278D03*
G01X-451294Y130278D03*
G01X-575059Y-379999D03*
G01X-874998Y-430006D03*
G01X-874998Y-369993D03*
G01X848326Y-487499D03*
G01X844645Y497552D03*
G01X845346Y219999D03*
G01X869998Y-282500D03*
G01X735636Y-238584D03*
G01X737498Y167500D03*
G01X-574999Y554999D03*
G01X-519999Y584999D03*
G01X-877498Y368939D03*
G01X-308569Y584999D03*
G01X-25000Y-377499D03*
G01X-524999Y-572499D03*
G01X-692499Y334999D03*
G01X-464999Y259999D03*
G01X419999Y-191023D03*
G01X419999Y-456241D03*
G01X-864998Y-264999D03*
G01X-649999Y-330862D03*
G01X140000Y-594999D03*
G01X-37500Y-589998D03*
G01X-299999Y-584999D03*
G01X-214999Y-222500D03*
G01X-599999Y-65000D03*
G01X-35000Y-205000D03*
G01X1234998Y0D03*
G01X-337500Y-534986D03*
G01X419999Y-254999D03*
G01X534999Y217500D03*
G01X1212571Y-254000D03*
G01X1215071Y-508000D03*
G01X514999Y-339999D03*
G01X514999Y10000D03*
G01X-599999Y-210000D03*
G01X255001Y-7352D03*
G01X737499Y-137499D03*
G01X484999Y-50559D03*
G01X-915045Y-225011D03*
G01X-909998Y250000D03*
G01X-904998Y439999D03*
G01X-840786Y-550163D03*
G01X-932546Y-447522D03*
G01X-634999Y369999D03*
G01X101439Y-469999D03*
G01X174998Y-311031D03*
G01X339998Y167500D03*
G01X414999Y120000D03*
G01X489999Y-190000D03*
G01X-175000Y-97500D03*
G01X407499Y-389999D03*
G01X474999Y392300D03*
G01X-42500Y330000D03*
G01X414999Y-50000D03*
G01X-220000Y272499D03*
G01X-460016Y586090D03*
G01X-463133Y-535871D03*
G01X-349999Y-279999D03*
G01X-432085Y485949D03*
G01X1204998Y65000D03*
G01X1204998Y-65000D03*
G04 Via End*

G04 Track Start*
G54D16*
G01X-874750Y-2704D02*
G01X-874750Y59743D01*
G01X-890001Y74994D01*
G01X-897040Y-24994D02*
G01X-874750Y-2704D01*
G01X-915000Y-24994D02*
G01X-897040Y-24994D01*
G01X-337500Y-534986D02*
G01X-114987Y-534986D01*
G01X-75000Y-494999D01*
G54D17*
G01X514999Y-339999D02*
G01X794998Y-339999D01*
G01X924998Y-469999D01*
G01X1129998Y-469999D01*
G01X1212571Y-387426D01*
G01X1212571Y-254000D01*
G01X1153072Y-569999D02*
G01X1215071Y-508000D01*
G01X842498Y-569999D02*
G01X1153072Y-569999D01*
G01X-319999Y-210000D02*
G01X-599999Y-210000D01*
G01X-165000Y-289999D02*
G01X-240000Y-289999D01*
G01X-319999Y-210000D01*
G01X-110000Y-235000D02*
G01X-165000Y-289999D01*
G01X-110000Y-145000D02*
G01X-110000Y-235000D01*
G01X-80000Y-115000D02*
G01X-110000Y-145000D01*
G01X-20000Y-115000D02*
G01X-80000Y-115000D01*
G54D16*
G01X694999Y55000D02*
G01X737499Y12500D01*
G01X737499Y-137499D01*
G54D17*
G01X-909998Y250000D02*
G01X-969998Y190000D01*
G01X-969998Y-170058D02*
G01X-915045Y-225011D01*
G01X-969998Y190000D02*
G01X-969998Y-170058D01*
G01X-519999Y404999D02*
G01X-519999Y584999D01*
G01X-684999Y240000D02*
G01X-519999Y404999D01*
G01X-299999Y-584999D02*
G01X-320001Y-605000D01*
G01X-624999Y-269999D02*
G01X-684999Y-210000D01*
G01X-449999Y-269999D02*
G01X-624999Y-269999D01*
G01X174998Y-311031D02*
G01X138968Y-311031D01*
G01X101439Y-348560D01*
G01X101439Y-469999D01*
G01X514999Y10000D02*
G01X564999Y-40000D01*
G01X564999Y-200000D01*
G01X339998Y167500D02*
G01X387498Y120000D01*
G01X414999Y120000D01*
G54D16*
G01X130000Y-254999D02*
G01X419999Y-254999D01*
G01X65000Y-319999D02*
G01X130000Y-254999D01*
G01X-75000Y-494999D02*
G01X-75000Y-354999D01*
G01X-40000Y-319999D01*
G01X65000Y-319999D01*
G54D17*
G01X40000Y-274999D02*
G01X-65000Y-274999D01*
G01X-135000Y-344999D01*
G01X255001Y-7352D02*
G01X102353Y-160000D01*
G01X25000Y-160000D01*
G01X-20000Y-115000D01*
G01X304999Y-215000D02*
G01X100000Y-215000D01*
G01X389999Y-130000D02*
G01X304999Y-215000D01*
G01X100000Y-215000D02*
G01X40000Y-274999D01*
G01X489999Y-190000D02*
G01X489999Y-165000D01*
G01X454999Y-130000D01*
G01X389999Y-130000D01*
G01X387498Y120000D02*
G01X387498Y57498D01*
G01X349999Y20000D01*
G01X349999Y-90000D01*
G01X389999Y-130000D01*
G01X-175000Y-97500D02*
G01X-272500Y-97500D01*
G01X-324999Y-150000D01*
G01X-679429Y-150000D02*
G01X-684999Y-144430D01*
G01X-684999Y-210000D02*
G01X-684999Y-144430D01*
G01X-684999Y240000D01*
G01X-324999Y-150000D02*
G01X-679429Y-150000D01*
G01X564999Y-200000D02*
G01X459999Y-304999D01*
G01X459999Y-374999D01*
G01X494999Y-409999D01*
G01X682499Y-409999D01*
G01X842498Y-569999D01*
G01X174998Y-311031D02*
G01X386031Y-311031D01*
G01X407499Y-332499D01*
G01X407499Y-389999D01*
G54D16*
G01X484999Y-50559D02*
G01X454999Y-20559D01*
G01X454999Y30000D01*
G01X479999Y55000D02*
G01X694999Y55000D01*
G01X454999Y30000D02*
G01X479999Y55000D01*
G01X414999Y-50000D02*
G01X414999Y-9498D01*
G54D17*
G01X-135000Y-344999D02*
G01X-374999Y-344999D01*
G01X-320001Y-605000D02*
G01X-360200Y-605000D01*
G01X-390200Y-575000D01*
G01X-390200Y-329799D01*
G01X-374999Y-344999D02*
G01X-390200Y-329799D01*
G01X-449999Y-269999D01*
G54D16*
G01X414999Y-9498D02*
G02X449999Y75000I119498J0D01*
G04 Track End*

M02*

