G04 Layer: BottomSolderMaskLayer*
G04 EasyEDA Pro v2.2.20.32, 2024-06-04 01:45:36*
G04 Gerber Generator version 0.3*
G04 Scale: 100 percent, Rotated: No, Reflected: No*
G04 Dimensions in millimeters*
G04 Leading zeros omitted, absolute positions, 3 integers and 5 decimals*
%FSLAX35Y35*%
%MOMM*%
%AMRoundRect*1,1,$1,$2,$3*1,1,$1,$4,$5*1,1,$1,0-$2,0-$3*1,1,$1,0-$4,0-$5*20,1,$1,$2,$3,$4,$5,0*20,1,$1,$4,$5,0-$2,0-$3,0*20,1,$1,0-$2,0-$3,0-$4,0-$5,0*20,1,$1,0-$4,0-$5,$2,$3,0*4,1,4,$2,$3,$4,$5,0-$2,0-$3,0-$4,0-$5,$2,$3,0*%
%ADD10O,2.70002X1.20002*%
%ADD11O,2.50002X1.20002*%
%ADD12RoundRect,1.11981X-1.24109X-0.34109X-1.24109X0.34109*%
%ADD13RoundRect,0.2304X0.2056X0.1106X0.2056X-0.1106*%
%ADD14RoundRect,0.2304X0.1106X-0.2056X-0.1106X-0.2056*%
%ADD15RoundRect,0.2304X-0.1106X0.2056X0.1106X0.2056*%
%ADD16RoundRect,0.2304X-0.2056X-0.1106X-0.2056X0.1106*%
%ADD17RoundRect,0.29313X0.43443X0.15443X0.43443X-0.15443*%
%ADD18RoundRect,0.14869X-0.32665X0.12665X0.32665X0.12665*%
%ADD19RoundRect,0.15591X0.22305X-0.13805X-0.22305X-0.13805*%
%ADD20RoundRect,0.1364X0.2328X-0.1078X-0.2328X-0.1078*%
%ADD21RoundRect,0.15591X-0.22305X0.13805X0.22305X0.13805*%
%ADD22RoundRect,0.1364X-0.2328X0.1078X0.2328X0.1078*%
%ADD23RoundRect,0.2304X0.2056X0.1106X0.2056X-0.1106*%
%ADD24C,1.102*%
%ADD25RoundRect,0.21778X-0.24211X0.24211X0.24211X0.24211*%
G75*


G04 Pad Start*
G54D10*
G01X-1029155Y540004D03*
G54D11*
G01X-1352141Y540004D03*
G01X-1352167Y-540004D03*
G54D10*
G01X-1029155Y-540004D03*
G54D12*
G01X1449700Y508000D03*
G01X1449700Y0D03*
G01X1449700Y254000D03*
G01X1449700Y-508000D03*
G01X1449700Y-254000D03*
G54D13*
G01X178144Y-509217D03*
G01X178144Y-595780D03*
G54D14*
G01X-21562Y-57506D03*
G01X-108125Y-57506D03*
G01X-21562Y-135010D03*
G01X-108125Y-135010D03*
G54D15*
G01X-753280Y588938D03*
G01X-666717Y588938D03*
G54D16*
G01X692533Y-75943D03*
G01X692533Y10620D03*
G01X694997Y-380941D03*
G01X694997Y-294378D03*
G54D17*
G01X-739645Y-588573D03*
G01X-739645Y-266806D03*
G54D18*
G01X-600448Y-178093D03*
G01X-700448Y-178093D03*
G54D19*
G01X-657040Y399999D03*
G54D20*
G01X-762958Y359994D03*
G01X-762958Y440004D03*
G54D21*
G01X-847957Y0D03*
G54D22*
G01X-742039Y40005D03*
G01X-742039Y-40005D03*
G54D23*
G01X101439Y-509217D03*
G01X101439Y-595780D03*
G54D14*
G01X-346735Y586089D03*
G01X-433298Y586089D03*
G54D24*
G01X-774562Y261206D03*
G54D16*
G01X256060Y-508281D03*
G01X256060Y-421717D03*
G01X256060Y-203281D03*
G01X256060Y-116718D03*
G54D25*
G01X339398Y-496023D03*
G01X339398Y-401027D03*
G01X339398Y-306031D03*
G01X609400Y-306031D03*
G01X609400Y-401027D03*
G01X609400Y-496023D03*
G01X339398Y-191023D03*
G01X339398Y-96027D03*
G01X339398Y-1031D03*
G01X609400Y-1031D03*
G01X609400Y-96027D03*
G01X609400Y-191023D03*
G54D15*
G01X-828280Y103939D03*
G01X-741717Y103939D03*
G01X-828280Y-106060D03*
G01X-741717Y-106060D03*
G54D14*
G01X703253Y315336D03*
G01X616689Y315336D03*
G01X703253Y240337D03*
G01X616689Y240337D03*
G54D23*
G01X-610075Y304787D03*
G01X-610075Y218223D03*
G01X-537044Y304190D03*
G01X-537044Y217627D03*
G04 Pad End*

M02*

